<svg viewBox="0 0 35 35" fill="none" xmlns="http://www.w3.org/2000/svg" xmlns:xlink="http://www.w3.org/1999/xlink" x="0" y="0"><g id="Icon">
<path d="M0.5,9.57c0,-3.18 0,-4.76 0.618,-5.98c0.543,-1.06 1.41,-1.93 2.476,-2.47c1.212,-0.62 2.799,-0.62 5.973,-0.62h15.866c3.174,0 4.761,0 5.973,0.62c1.066,0.54 1.933,1.41 2.476,2.47c0.618,1.22 0.618,2.8 0.618,5.98v15.86c0,3.18 0,4.76 -0.618,5.98c-0.543,1.06 -1.41,1.93 -2.476,2.47c-1.212,0.62 -2.799,0.62 -5.973,0.62h-15.866c-3.174,0 -4.761,0 -5.973,-0.62c-1.066,-0.54 -1.933,-1.41 -2.476,-2.47c-0.618,-1.22 -0.618,-2.8 -0.618,-5.98z" fill="#03045E"/>
<path d="M9,17.5l5.667,5.67l11.333,-11.34M9.567,34.5h15.866c3.174,0 4.761,0 5.973,-0.62c1.066,-0.54 1.933,-1.41 2.476,-2.47c0.618,-1.22 0.618,-2.8 0.618,-5.98v-15.86c0,-3.18 0,-4.76 -0.618,-5.98c-0.543,-1.06 -1.41,-1.93 -2.476,-2.47c-1.212,-0.62 -2.799,-0.62 -5.973,-0.62h-15.866c-3.174,0 -4.761,0 -5.973,0.62c-1.066,0.54 -1.933,1.41 -2.476,2.47c-0.618,1.22 -0.618,2.8 -0.618,5.98v15.86c0,3.18 0,4.76 0.618,5.98c0.543,1.06 1.41,1.93 2.476,2.47c1.212,0.62 2.799,0.62 5.973,0.62z" stroke="white" stroke-linecap="round" stroke-linejoin="round"/>
</g></svg>