<svg viewBox="0 0 18 18" fill="none" xmlns="http://www.w3.org/2000/svg" xmlns:xlink="http://www.w3.org/1999/xlink" x="0" y="0"><path id="Vector_3" d="M15.335,15.34h-2.665v-4.18c0,-0.99 -0.02,-2.28 -1.389,-2.28c-1.39,0 -1.602,1.09 -1.602,2.21v4.25h-2.666v-8.59h2.561v1.17h0.034c0.358,-0.67 1.228,-1.39 2.528,-1.39c2.701,0 3.2,1.78 3.2,4.09zM4.003,5.57c-0.858,0 -1.547,-0.69 -1.547,-1.54c0,-0.86 0.689,-1.55 1.547,-1.55c0.855,0 1.548,0.69 1.548,1.55c0,0.85 -0.694,1.54 -1.548,1.54zM5.339,15.34h-2.673v-8.59h2.673zM16.669,0h-15.341c-0.734,0 -1.328,0.58 -1.328,1.3v15.4c0,0.72 0.594,1.3 1.328,1.3h15.339c0.733,0 1.333,-0.58 1.333,-1.3v-15.4c0,-0.72 -0.6,-1.3 -1.333,-1.3z" fill="currentColor"/></svg>