<svg viewBox="0 0 19.9993 19.9993" fill="none" xmlns="http://www.w3.org/2000/svg" xmlns:xlink="http://www.w3.org/1999/xlink" x="0" y="0"><path id="Vector_4" d="M11.027,-0.001c1.126,0 1.696,0.01 2.189,0.02l0.194,0.01c0.224,0.01 0.445,0.02 0.712,0.03c1.064,0.05 1.79,0.22 2.427,0.47c0.659,0.25 1.216,0.59 1.772,1.15c0.555,0.55 0.898,1.11 1.153,1.77c0.247,0.64 0.415,1.36 0.465,2.43c0.012,0.26 0.022,0.49 0.03,0.71l0.006,0.19c0.015,0.5 0.021,1.07 0.023,2.19l0.001,0.75c0,0.09 0,0.18 0,0.28v0.28v0.75c-0.002,1.12 -0.008,1.69 -0.023,2.19l-0.006,0.19c-0.008,0.22 -0.018,0.45 -0.031,0.71c-0.049,1.07 -0.218,1.79 -0.465,2.43c-0.254,0.66 -0.598,1.22 -1.153,1.77c-0.556,0.56 -1.115,0.9 -1.772,1.16c-0.637,0.24 -1.363,0.41 -2.427,0.46c-0.267,0.01 -0.488,0.02 -0.712,0.03l-0.194,0.01c-0.493,0.01 -1.063,0.02 -2.189,0.02h-0.746c-0.091,0 -0.185,0 -0.282,0h-0.282h-0.745c-1.126,0 -1.696,-0.01 -2.189,-0.02l-0.194,-0.01c-0.224,-0.01 -0.446,-0.02 -0.712,-0.03c-1.064,-0.05 -1.789,-0.22 -2.428,-0.46c-0.658,-0.26 -1.216,-0.6 -1.771,-1.16c-0.556,-0.55 -0.899,-1.11 -1.154,-1.77c-0.247,-0.64 -0.415,-1.36 -0.465,-2.43c-0.012,-0.26 -0.021,-0.49 -0.029,-0.71l-0.006,-0.19c-0.015,-0.5 -0.022,-1.07 -0.024,-2.19v-2.06c0.002,-1.12 0.008,-1.69 0.022,-2.19l0.007,-0.19c0.008,-0.22 0.018,-0.45 0.03,-0.71c0.049,-1.07 0.218,-1.79 0.465,-2.43c0.254,-0.66 0.598,-1.22 1.154,-1.77c0.555,-0.56 1.114,-0.9 1.771,-1.15c0.638,-0.25 1.363,-0.42 2.428,-0.47c0.266,-0.01 0.488,-0.02 0.712,-0.03l0.194,-0.01c0.493,-0.01 1.063,-0.02 2.189,-0.02zM9.999,4.999c-2.763,0 -5,2.24 -5,5c0,2.76 2.24,5 5,5c2.763,0 5,-2.24 5,-5c0,-2.76 -2.239,-5 -5,-5zM9.999,6.999c1.657,0 3,1.34 3,3c0,1.66 -1.342,3 -3,3c-1.657,0 -3,-1.34 -3,-3c0,-1.66 1.343,-3 3,-3zM15.249,3.499c-0.689,0 -1.25,0.56 -1.25,1.25c0,0.69 0.56,1.25 1.25,1.25c0.69,0 1.25,-0.56 1.25,-1.25c0,-0.69 -0.561,-1.25 -1.25,-1.25z" fill="currentColor"/></svg>