<svg viewBox="0 0 1512 504.4047" fill="none" xmlns="http://www.w3.org/2000/svg" xmlns:xlink="http://www.w3.org/1999/xlink" id="4e579ea0" x="0" y="0"><g id="home" data-node-id="16785:3319"><g clip-path="url(#clip0_16785_3319)"><g id="Group 1000004218" data-node-id="17074:22838">
<g id="Group 1000004211" data-node-id="17074:22839">
<g id="atoms" data-node-id="17074:22840">
<path id="atoms/image/circles" data-node-id="I17074:22840;16614:3581" fill-rule="evenodd" clip-rule="evenodd" d="M1546.63,80.3616c35.55,-64.958 81.03,-94.186 117.3,-67.538c50.9,37.398 64.39,170.686 30.12,297.706c-34.28,127.02 -103.32,199.68 -154.23,162.28c-17.33,-12.74 -30.32,-36.6 -38.57,-67.54c-35.55,64.96 -81.03,94.19 -117.3,67.54c-17.34,-12.74 -30.33,-36.6 -38.58,-67.54c-35.55,64.96 -81.03,94.19 -117.3,67.54c-50.9,-37.4 -64.39,-170.69 -30.12,-297.71c34.28,-127.02 103.32,-199.674 154.23,-162.276c17.33,12.736 30.32,36.595 38.57,67.538c35.55,-64.958 81.03,-94.186 117.3,-67.538c17.34,12.736 30.33,36.594 38.58,67.538z" fill="#D0D1FF"/>
</g>
<g id="atoms_2" data-node-id="17074:22841">
<path id="atoms/image/circles_2" data-node-id="I17074:22841;16614:3581" fill-rule="evenodd" clip-rule="evenodd" d="M1062.63,101.6356c35.55,-64.958 81.03,-94.186 117.3,-67.538c50.9,37.398 64.39,170.682 30.12,297.712c-34.28,127.02 -103.32,199.67 -154.23,162.27c-17.33,-12.73 -30.32,-36.59 -38.57,-67.54c-35.552,64.96 -81.033,94.19 -117.304,67.54c-17.335,-12.73 -30.329,-36.59 -38.576,-67.54c-35.55,64.96 -81.031,94.19 -117.302,67.54c-50.902,-37.4 -64.385,-170.68 -30.114,-297.71c34.272,-127.017 103.32,-199.671 154.223,-162.272c17.335,12.736 30.328,36.594 38.575,67.538c35.55,-64.958 81.031,-94.186 117.298,-67.538c17.34,12.736 30.33,36.594 38.58,67.538z" fill="#D0D1FF"/>
</g>
<g id="atoms_3" data-node-id="17074:22842">
<path id="atoms/image/circles_3" data-node-id="I17074:22842;16614:3581" fill-rule="evenodd" clip-rule="evenodd" d="M598.629,101.6356c35.55,-64.958 81.032,-94.186 117.303,-67.538c50.903,37.398 64.386,170.682 30.114,297.712c-34.272,127.02 -103.32,199.67 -154.223,162.27c-17.335,-12.73 -30.328,-36.59 -38.575,-67.54c-35.55,64.96 -81.031,94.19 -117.302,67.54c-17.335,-12.73 -30.329,-36.59 -38.576,-67.54c-35.55,64.96 -81.031,94.19 -117.302,67.54c-50.902,-37.4 -64.385,-170.68 -30.114,-297.71c34.272,-127.017 103.32,-199.671 154.223,-162.272c17.335,12.736 30.328,36.594 38.575,67.538c35.55,-64.958 81.031,-94.186 117.302,-67.538c17.335,12.736 30.328,36.594 38.575,67.538z" fill="#D0D1FF"/>
</g>
<g id="atoms_4" data-node-id="17074:22843">
<path id="atoms/image/circles_4" data-node-id="I17074:22843;16614:3581" fill-rule="evenodd" clip-rule="evenodd" d="M136.232,101.6346c38.413,-64.957 87.557,-94.185 126.748,-67.538c55.002,37.399 69.571,170.683 32.54,297.713c-37.032,127.02 -111.639,199.67 -166.641,162.27c-18.732,-12.73 -32.7714,-36.59 -41.6827,-67.54c-38.4128,64.96 -87.5558,94.19 -126.7471,67.54c-18.7313,-12.73 -32.7713,-36.59 -41.6826,-67.54c-38.4126,64.96 -87.5556,94.19 -126.7466,67.54c-55.002,-37.4 -69.571,-170.68 -32.54,-297.71c37.032,-127.017 111.639,-199.671 166.6411,-162.273c18.7312,12.737 32.7703,36.595 41.6816,67.538c38.41272,-64.957 87.5569,-94.185 126.7481,-67.538c18.7312,12.737 32.7702,36.595 41.6812,67.538z" fill="#D0D1FF"/>
</g>
</g>
</g><g id="Group 8" data-node-id="16785:3341">
<g id="Group 6" data-node-id="16785:3342">
<rect id="Rectangle 26" data-node-id="16785:3343" x="-166.454" y="1.6195999999999913" width="2020.56" height="71.2538" transform="rotate(4.77052, -166.454, 1.6195999999999913)" fill="#FF6600" stroke="black" stroke-width="3"/>
</g>
<path id="Community ~ Commerce ~ Reviews ~ Community ~ Commerce ~ Reviews ~ Community ~ Commerce ~ Reviews ~ Community ~ Commerce" data-node-id="16785:3344" d="M-135.73,45.8466c-4.855,-0.405 -7.777,-4.357 -7.33,-9.715c0.447,-5.357 4.051,-8.428 8.811,-8.031c4.257,0.355 7.214,3.299 7.317,7.836l-3.904,0.035c-0.145,-2.878 -1.51,-4.413 -3.735,-4.598c-2.343,-0.196 -4.325,1.614 -4.628,5.249c-0.304,3.635 1.35,5.748 3.694,5.944c2.225,0.185 3.825,-1.102 4.445,-3.916l3.845,0.682c-0.856,4.48 -4.258,6.87 -8.515,6.514zM-120.218,47.0696c-3.516,-0.294 -5.987,-3.005 -5.661,-6.903c0.323,-3.875 3.211,-6.162 6.727,-5.869c3.54,0.295 5.985,3.028 5.662,6.903c-0.326,3.898 -3.188,6.164 -6.728,5.869zM-119.968,44.0796c1.554,0.13 2.782,-1.02 2.962,-3.173c0.177,-2.128 -0.843,-3.466 -2.397,-3.595c-1.555,-0.13 -2.783,1.02 -2.961,3.148c-0.179,2.153 0.841,3.49 2.396,3.62zM-111.935,47.4476l1.012,-12.126l3.444,0.287l-0.161,1.938c0.741,-1.383 2.234,-1.957 3.741,-1.832c1.674,0.14 3.063,1.099 3.609,2.638c0.8453,-1.471 2.5375,-2.125 4.1638,-1.989c2.3439,0.196 4.0717,2.002 3.8481,4.68l-0.6666,7.989l-3.5158,-0.294l0.5928,-7.103c0.1297,-1.555 -0.498,-2.402 -1.8134,-2.512c-1.2437,-0.103 -2.2922,0.628 -2.4479,2.493l-0.565,6.769l-3.516,-0.293l0.591,-7.08c0.13,-1.554 -0.496,-2.426 -1.811,-2.535c-1.244,-0.104 -2.316,0.625 -2.472,2.491l-0.565,6.768zM-90.2834,49.2546l1.0119,-12.126l3.4441,0.287l-0.1617,1.938c0.7416,-1.384 2.2345,-1.957 3.7412,-1.832c1.6742,0.14 3.0633,1.099 3.6092,2.638c0.8453,-1.471 2.5375,-2.125 4.1638,-1.989c2.3439,0.196 4.0717,2.002 3.8481,4.68l-0.6666,7.989l-3.5158,-0.294l0.5928,-7.103c0.1297,-1.555 -0.498,-2.402 -1.8134,-2.512c-1.2437,-0.103 -2.2922,0.628 -2.4478,2.493l-0.5649,6.769l-3.5158,-0.294l0.5908,-7.079c0.1298,-1.555 -0.496,-2.426 -1.8114,-2.535c-1.2437,-0.104 -2.316,0.625 -2.4717,2.491l-0.5649,6.768zM-64.5344,51.5956c-2.3678,-0.197 -4.1195,-2.005 -3.8979,-4.66l0.6686,-8.012l3.5158,0.293l-0.5908,7.08c-0.1297,1.554 0.5199,2.427 1.8832,2.541c1.2676,0.106 2.2941,-0.651 2.4498,-2.517l0.5628,-6.745l3.468,0.29l-1.012,12.126l-3.444,-0.288l0.1557,-1.865c-0.7615,1.333 -2.2764,1.881 -3.7592,1.757zM-54.6651,52.2266l1.012,-12.126l3.444,0.288l-0.1577,1.889c0.7895,-1.379 2.3023,-1.903 3.8091,-1.777c2.3677,0.197 4.1453,1.983 3.9238,4.638l-0.6706,8.036l-3.5158,-0.293l0.5928,-7.103c0.1297,-1.555 -0.5458,-2.406 -1.9091,-2.52c-1.2676,-0.106 -2.34,0.624 -2.4957,2.489l-0.5648,6.769zM-40.6513,53.3966l1.012,-12.126l3.4679,0.289l-1.0119,12.126zM-37.7756,40.0056c-1.148,-0.096 -1.9651,-0.983 -1.8713,-2.107c0.0958,-1.148 1.0486,-1.888 2.1966,-1.792c1.148,0.096 1.9651,0.983 1.8693,2.131c-0.0938,1.124 -1.0466,1.863 -2.1946,1.768zM-29.0131,54.6806c-2.87,-0.239 -4.4065,-2.029 -4.1669,-4.899l0.4271,-5.119l-1.8416,-0.153l0.2335,-2.799l1.8416,0.154l0.2854,-3.42l3.4441,0.287l-0.2855,3.421l4.8313,0.403l-0.2336,2.798l-4.8312,-0.403l-0.4291,5.142c-0.0779,0.933 0.3546,1.523 1.1199,1.587c0.6697,0.055 1.16,-0.337 1.2139,-0.983c0.024,-0.287 -0.0477,-0.582 -0.1932,-0.859l2.6131,-1.01c0.4663,0.761 0.6077,1.664 0.5418,2.453c-0.1896,2.273 -2.0354,3.612 -4.5706,3.4zM-20.5793,59.6476c-2.607,-0.218 -3.976,-1.994 -3.8163,-3.907c0.0518,-0.622 0.2452,-1.208 0.5283,-1.714l2.8201,1.126c-0.0618,0.164 -0.1236,0.327 -0.1416,0.542c-0.0439,0.526 0.259,0.937 0.8809,0.989c0.574,0.048 0.9407,-0.307 1.2059,-0.887l0.319,-0.647l-3.7774,-12.454l3.8267,0.32l2.1874,8.13l3.433,-7.661l3.34838,0.279l-6.10638,12.857c-0.9669,2.062 -2.3164,3.226 -4.708,3.027zM7.62011,50.1756c-0.56866,-0.304 -1.05694,-0.514 -1.46485,-0.628c-0.39063,-0.129 -0.7693,-0.209 -1.13603,-0.239c-0.44645,-0.037 -0.92812,0.059 -1.44503,0.289c-0.50095,0.231 -0.96737,0.529 -1.39925,0.894l0.22554,-2.702c0.43321,-0.382 0.90561,-0.655 1.41719,-0.821c0.51291,-0.182 1.07231,-0.248 1.6782,-0.197c0.4624,0.038 0.9208,0.125 1.37521,0.259c0.47168,0.12 1.06891,0.37 1.79169,0.752c0.56866,0.304 1.05628,0.521 1.46282,0.651c0.4079,0.115 0.7873,0.187 1.1381,0.216c0.4624,0.038 0.944,-0.058 1.445,-0.289c0.5009,-0.231 0.9674,-0.529 1.3992,-0.895l-0.2255,2.703c-0.4332,0.381 -0.9063,0.663 -1.4192,0.845c-0.5116,0.166 -1.0703,0.224 -1.6762,0.173c-0.4624,-0.039 -0.92875,-0.126 -1.39911,-0.261c-0.45441,-0.135 -1.04367,-0.384 -1.76778,-0.75zM28.8382,59.5806c-4.8551,-0.405 -7.7765,-4.358 -7.3294,-9.715c0.4471,-5.357 4.051,-8.428 8.8104,-8.031c4.2573,0.355 7.2146,3.299 7.3177,7.836l-3.9044,0.035c-0.1452,-2.878 -1.5103,-4.413 -3.7345,-4.598c-2.3439,-0.196 -4.3252,1.613 -4.6286,5.249c-0.3034,3.635 1.3506,5.748 3.6945,5.944c2.2242,0.185 3.8248,-1.102 4.445,-3.916l3.8446,0.682c-0.8556,4.48 -4.2581,6.87 -8.5153,6.514zM44.3508,60.8036c-3.5158,-0.294 -5.9869,-3.005 -5.6616,-6.903c0.3234,-3.875 3.2116,-6.162 6.7274,-5.869c3.5397,0.295 5.9849,3.028 5.6616,6.903c-0.3254,3.898 -3.1877,6.164 -6.7274,5.869zM44.6003,57.8136c1.5546,0.13 2.7824,-1.02 2.9621,-3.173c0.1776,-2.128 -0.8427,-3.466 -2.3973,-3.595c-1.5546,-0.13 -2.7825,1.02 -2.9601,3.148c-0.1796,2.153 0.8407,3.49 2.3953,3.62zM52.6338,61.1816l1.012,-12.126l3.444,0.287l-0.1617,1.938c0.7416,-1.383 2.2345,-1.957 3.7413,-1.832c1.6742,0.14 3.0632,1.099 3.6092,2.638c0.8452,-1.471 2.5374,-2.125 4.1638,-1.989c2.3438,0.196 4.0716,2.002 3.8481,4.68l-0.6667,7.989l-3.5158,-0.294l0.5928,-7.103c0.1298,-1.555 -0.498,-2.402 -1.8134,-2.512c-1.2437,-0.103 -2.2921,0.628 -2.4478,2.493l-0.5649,6.769l-3.5157,-0.294l0.5908,-7.079c0.1297,-1.554 -0.496,-2.426 -1.8114,-2.535c-1.2437,-0.104 -2.3161,0.625 -2.4718,2.491l-0.5648,6.768zM74.2851,62.9886l1.012,-12.126l3.444,0.287l-0.1617,1.938c0.7416,-1.384 2.2345,-1.957 3.7413,-1.832c1.6742,0.14 3.0632,1.099 3.6092,2.638c0.8452,-1.471 2.5374,-2.125 4.1638,-1.989c2.3438,0.196 4.0716,2.002 3.8481,4.68l-0.6667,7.988l-3.5158,-0.293l0.5928,-7.103c0.1298,-1.555 -0.498,-2.402 -1.8134,-2.512c-1.2437,-0.104 -2.2921,0.628 -2.4478,2.493l-0.5649,6.769l-3.5157,-0.294l0.5908,-7.079c0.1297,-1.555 -0.496,-2.426 -1.8114,-2.535c-1.2437,-0.104 -2.3161,0.625 -2.4718,2.491l-0.5648,6.768zM101.22,65.5496c-3.6832,-0.308 -5.8414,-3.017 -5.518,-6.891c0.3153,-3.779 3.1398,-6.168 6.488,-5.889c3.301,0.275 5.598,2.755 5.297,6.367c-0.05,0.598 -0.116,1.098 -0.229,1.594l-8.3234,-0.695c0.0855,1.573 1.1354,2.552 2.5464,2.669c1.268,0.106 2.177,-0.396 2.725,-1.482l2.655,1.378c-1.152,2.264 -3.178,3.154 -5.641,2.949zM99.1043,57.7146l5.2857,0.441c0.09,-1.366 -0.801,-2.524 -2.427,-2.659c-1.364,-0.114 -2.5396,0.703 -2.8587,2.218zM109.039,65.8886l1.012,-12.126l3.301,0.276l-0.118,1.411c0.658,-0.957 1.802,-1.391 2.976,-1.317c2.298,0.167 3.543,1.981 3.374,4.014c-0.142,1.698 -1.205,3.175 -2.813,3.691l-1.572,-2.515c0.496,-0.176 0.891,-0.576 0.939,-1.15c0.06,-0.718 -0.447,-1.29 -1.236,-1.356c-0.933,-0.078 -1.664,0.608 -1.784,2.043l-0.611,7.318zM125.999,67.6176c-3.588,-0.3 -5.738,-3.104 -5.423,-6.883c0.314,-3.755 3.116,-6.171 6.513,-5.887c3.133,0.261 5.492,2.289 5.346,5.769l-3.446,0.025c0.04,-1.634 -0.765,-2.665 -2.152,-2.781c-1.531,-0.127 -2.569,1.062 -2.745,3.167c-0.175,2.105 0.65,3.474 2.204,3.604c1.435,0.12 2.328,-0.769 2.583,-2.386l3.395,0.597c-0.457,3.454 -3.118,5.038 -6.275,4.775zM139.221,68.7206c-3.683,-0.307 -5.842,-3.016 -5.518,-6.891c0.315,-3.779 3.14,-6.168 6.488,-5.889c3.3,0.276 5.598,2.755 5.297,6.367c-0.05,0.598 -0.116,1.098 -0.23,1.594l-8.323,-0.694c0.086,1.572 1.136,2.551 2.547,2.669c1.268,0.106 2.177,-0.397 2.725,-1.483l2.655,1.378c-1.153,2.264 -3.178,3.155 -5.641,2.949zM137.105,60.8856l5.286,0.441c0.089,-1.365 -0.801,-2.523 -2.428,-2.659c-1.363,-0.114 -2.539,0.703 -2.858,2.218zM158.268,62.7476c-0.568,-0.304 -1.057,-0.513 -1.465,-0.628c-0.39,-0.129 -0.769,-0.208 -1.136,-0.239c-0.446,-0.037 -0.928,0.059 -1.445,0.289c-0.501,0.231 -0.967,0.529 -1.399,0.895l0.226,-2.703c0.433,-0.381 0.905,-0.655 1.417,-0.821c0.513,-0.182 1.072,-0.248 1.678,-0.197c0.462,0.038 0.921,0.125 1.375,0.259c0.472,0.12 1.069,0.37 1.792,0.752c0.569,0.304 1.056,0.521 1.463,0.652c0.408,0.114 0.787,0.186 1.138,0.215c0.462,0.039 0.944,-0.058 1.445,-0.289c0.501,-0.231 0.967,-0.529 1.399,-0.894l-0.225,2.702c-0.434,0.381 -0.907,0.663 -1.42,0.845c-0.511,0.166 -1.07,0.224 -1.676,0.173c-0.462,-0.038 -0.929,-0.125 -1.399,-0.261c-0.454,-0.134 -1.044,-0.384 -1.768,-0.75zM181.982,71.9756l-2.616,-6.455l-2.87,-0.24l-0.517,6.194l-3.66,-0.305l1.418,-16.981l7.127,0.595c3.898,0.325 5.795,2.699 5.544,5.713c-0.172,2.057 -1.398,3.761 -3.475,4.406l3.162,7.417zM176.747,62.2666l3.061,0.256c1.675,0.14 2.733,-0.711 2.853,-2.146c0.114,-1.364 -0.811,-2.404 -2.485,-2.544l-3.038,-0.253zM192.894,73.1996c-3.684,-0.307 -5.842,-3.016 -5.519,-6.891c0.316,-3.778 3.14,-6.168 6.489,-5.888c3.3,0.275 5.598,2.755 5.297,6.366c-0.05,0.598 -0.116,1.098 -0.23,1.595l-8.323,-0.695c0.086,1.573 1.136,2.551 2.547,2.669c1.268,0.106 2.176,-0.396 2.725,-1.482l2.654,1.377c-1.152,2.264 -3.177,3.155 -5.64,2.949zM190.778,65.3646l5.285,0.441c0.09,-1.365 -0.801,-2.523 -2.427,-2.659c-1.363,-0.114 -2.539,0.703 -2.858,2.218zM203.299,73.7546l-3.006,-12.461l3.588,0.3l1.99,9.053l3.487,-8.596l3.348,0.279l-5.054,11.789zM213.255,74.5856l1.012,-12.126l3.468,0.29l-1.012,12.126zM216.131,61.1946c-1.148,-0.096 -1.965,-0.983 -1.871,-2.107c0.095,-1.148 1.048,-1.887 2.196,-1.791c1.148,0.095 1.965,0.982 1.869,2.13c-0.093,1.125 -1.046,1.864 -2.194,1.768zM224.822,75.8646c-3.684,-0.308 -5.842,-3.017 -5.518,-6.891c0.315,-3.779 3.139,-6.168 6.488,-5.889c3.3,0.276 5.598,2.755 5.297,6.367c-0.05,0.598 -0.116,1.098 -0.23,1.594l-8.323,-0.694c0.086,1.572 1.136,2.551 2.547,2.669c1.268,0.105 2.177,-0.397 2.725,-1.483l2.654,1.378c-1.152,2.264 -3.177,3.154 -5.64,2.949zM222.706,68.0296l5.285,0.441c0.09,-1.366 -0.8,-2.524 -2.427,-2.659c-1.363,-0.114 -2.539,0.703 -2.858,2.218zM234.58,76.3656l-2.217,-12.395l3.42,0.285l1.338,8.782l2.824,-8.435l3.444,0.288l1.38,8.857l2.733,-8.514l3.277,0.274l-4.217,11.858l-4.042,-0.337l-1.27,-8.15l-2.604,7.826zM256.079,78.5206c-3.325,-0.277 -5.218,-1.832 -4.996,-4.487c0.018,-0.215 0.095,-0.57 0.159,-0.757l3.125,0.357c-0.065,0.211 -0.077,0.355 -0.091,0.522c-0.078,0.933 0.615,1.569 2.024,1.711c1.22,0.101 1.997,-0.267 2.061,-1.033c0.056,-0.669 -0.368,-1.066 -1.526,-1.331l-1.7,-0.407c-2.906,-0.676 -3.649,-2.159 -3.5,-3.953c0.186,-2.224 2.145,-3.77 5.326,-3.505c3.229,0.27 5.118,1.872 4.929,4.144c-0.02,0.24 -0.104,0.666 -0.194,0.875l-3.193,-0.411c0.06,-0.139 0.098,-0.305 0.112,-0.472c0.06,-0.717 -0.61,-1.351 -1.853,-1.455c-1.172,-0.098 -1.86,0.35 -1.91,0.948c-0.044,0.527 0.265,0.865 1.114,1.081l1.652,0.403c2.974,0.729 4.259,2.065 4.08,4.217c-0.232,2.775 -2.486,3.815 -5.619,3.553zM280.492,72.9476c-0.569,-0.304 -1.057,-0.513 -1.465,-0.628c-0.391,-0.129 -0.769,-0.208 -1.136,-0.239c-0.446,-0.037 -0.928,0.059 -1.445,0.289c-0.501,0.231 -0.967,0.529 -1.399,0.895l0.225,-2.703c0.433,-0.381 0.906,-0.655 1.417,-0.821c0.513,-0.182 1.073,-0.248 1.679,-0.197c0.462,0.039 0.92,0.125 1.375,0.259c0.472,0.12 1.069,0.37 1.792,0.752c0.568,0.304 1.056,0.521 1.462,0.652c0.408,0.114 0.788,0.186 1.138,0.215c0.463,0.039 0.944,-0.058 1.445,-0.289c0.501,-0.231 0.968,-0.529 1.4,-0.894l-0.226,2.702c-0.433,0.381 -0.906,0.663 -1.419,0.845c-0.512,0.166 -1.07,0.224 -1.676,0.173c-0.463,-0.038 -0.929,-0.125 -1.399,-0.261c-0.455,-0.134 -1.044,-0.384 -1.768,-0.75zM301.71,82.3536c-4.855,-0.406 -7.777,-4.358 -7.329,-9.716c0.447,-5.357 4.051,-8.428 8.81,-8.031c4.257,0.356 7.215,3.3 7.318,7.836l-3.905,0.035c-0.145,-2.878 -1.51,-4.412 -3.734,-4.598c-2.344,-0.196 -4.325,1.614 -4.629,5.249c-0.303,3.636 1.351,5.748 3.695,5.944c2.224,0.186 3.824,-1.102 4.445,-3.916l3.844,0.682c-0.855,4.481 -4.258,6.87 -8.515,6.515zM317.223,83.5756c-3.516,-0.293 -5.987,-3.004 -5.662,-6.903c0.323,-3.874 3.212,-6.162 6.727,-5.869c3.54,0.296 5.985,3.029 5.662,6.903c-0.325,3.899 -3.188,6.164 -6.727,5.869zM317.472,80.5856c1.555,0.13 2.782,-1.02 2.962,-3.172c0.178,-2.129 -0.843,-3.466 -2.397,-3.596c-1.555,-0.13 -2.783,1.02 -2.96,3.149c-0.18,2.152 0.84,3.49 2.395,3.619zM325.506,83.9536l1.012,-12.126l3.444,0.288l-0.162,1.937c0.741,-1.383 2.234,-1.957 3.741,-1.831c1.674,0.139 3.063,1.098 3.609,2.637c0.846,-1.471 2.538,-2.124 4.164,-1.989c2.344,0.196 4.072,2.002 3.848,4.681l-0.666,7.988l-3.516,-0.293l0.593,-7.104c0.129,-1.554 -0.498,-2.402 -1.814,-2.511c-1.244,-0.104 -2.292,0.627 -2.448,2.493l-0.565,6.768l-3.515,-0.293l0.591,-7.08c0.129,-1.554 -0.496,-2.425 -1.812,-2.535c-1.244,-0.104 -2.316,0.626 -2.472,2.491l-0.564,6.769zM347.157,85.7606l1.012,-12.126l3.444,0.288l-0.162,1.937c0.742,-1.383 2.235,-1.957 3.741,-1.831c1.675,0.139 3.064,1.098 3.61,2.637c0.845,-1.471 2.537,-2.124 4.163,-1.989c2.344,0.196 4.072,2.002 3.848,4.681l-0.666,7.988l-3.516,-0.294l0.593,-7.103c0.13,-1.555 -0.498,-2.402 -1.814,-2.511c-1.243,-0.104 -2.292,0.627 -2.447,2.493l-0.565,6.768l-3.516,-0.293l0.591,-7.08c0.13,-1.554 -0.496,-2.425 -1.812,-2.535c-1.243,-0.104 -2.316,0.625 -2.471,2.491l-0.565,6.768zM372.906,88.1026c-2.368,-0.198 -4.12,-2.006 -3.898,-4.661l0.669,-8.012l3.515,0.293l-0.59,7.08c-0.13,1.554 0.519,2.428 1.883,2.541c1.267,0.106 2.294,-0.651 2.45,-2.517l0.562,-6.744l3.468,0.289l-1.012,12.126l-3.444,-0.287l0.156,-1.866c-0.761,1.333 -2.276,1.881 -3.759,1.758zM382.775,88.7336l1.012,-12.126l3.444,0.287l-0.157,1.89c0.789,-1.38 2.302,-1.904 3.809,-1.778c2.367,0.198 4.145,1.984 3.923,4.639l-0.67,8.036l-3.516,-0.294l0.593,-7.103c0.129,-1.555 -0.546,-2.406 -1.909,-2.52c-1.268,-0.105 -2.34,0.624 -2.496,2.489l-0.565,6.769zM396.789,89.9026l1.012,-12.126l3.468,0.29l-1.012,12.125zM399.665,76.5116c-1.148,-0.096 -1.965,-0.983 -1.872,-2.107c0.096,-1.148 1.049,-1.887 2.197,-1.792c1.148,0.096 1.965,0.983 1.869,2.131c-0.094,1.124 -1.046,1.864 -2.194,1.768zM408.427,91.1866c-2.87,-0.239 -4.406,-2.029 -4.167,-4.899l0.427,-5.118l-1.841,-0.154l0.233,-2.798l1.842,0.153l0.285,-3.42l3.444,0.288l-0.285,3.42l4.831,0.403l-0.233,2.798l-4.832,-0.403l-0.429,5.142c-0.078,0.933 0.355,1.523 1.12,1.587c0.67,0.056 1.16,-0.337 1.214,-0.983c0.024,-0.287 -0.048,-0.582 -0.193,-0.859l2.613,-1.01c0.466,0.762 0.608,1.664 0.542,2.454c-0.19,2.272 -2.036,3.611 -4.571,3.399zM416.861,96.1536c-2.607,-0.218 -3.976,-1.994 -3.816,-3.907c0.052,-0.622 0.245,-1.208 0.528,-1.714l2.82,1.126c-0.062,0.164 -0.124,0.327 -0.141,0.543c-0.044,0.526 0.259,0.936 0.88,0.988c0.574,0.048 0.941,-0.307 1.206,-0.887l0.319,-0.647l-3.777,-12.454l3.827,0.32l2.187,8.13l3.433,-7.661l3.348,0.279l-6.106,12.857c-0.967,2.063 -2.316,3.227 -4.708,3.027zM445.06,86.6816c-0.568,-0.304 -1.057,-0.513 -1.464,-0.628c-0.391,-0.129 -0.77,-0.208 -1.136,-0.239c-0.447,-0.037 -0.929,0.059 -1.446,0.289c-0.5,0.231 -0.967,0.529 -1.399,0.895l0.226,-2.703c0.433,-0.381 0.905,-0.655 1.417,-0.821c0.513,-0.182 1.072,-0.248 1.678,-0.197c0.463,0.038 0.921,0.125 1.375,0.259c0.472,0.12 1.069,0.37 1.792,0.752c0.569,0.304 1.056,0.521 1.463,0.652c0.408,0.114 0.787,0.186 1.138,0.215c0.462,0.039 0.944,-0.058 1.445,-0.289c0.501,-0.231 0.967,-0.529 1.399,-0.894l-0.225,2.702c-0.434,0.381 -0.907,0.663 -1.419,0.845c-0.512,0.166 -1.071,0.224 -1.677,0.173c-0.462,-0.038 -0.928,-0.125 -1.399,-0.261c-0.454,-0.134 -1.043,-0.384 -1.768,-0.75zM466.279,96.0876c-4.856,-0.406 -7.777,-4.358 -7.33,-9.716c0.447,-5.357 4.051,-8.428 8.811,-8.031c4.257,0.356 7.214,3.3 7.317,7.836l-3.904,0.035c-0.145,-2.878 -1.51,-4.413 -3.735,-4.598c-2.344,-0.196 -4.325,1.614 -4.628,5.249c-0.304,3.635 1.35,5.748 3.694,5.944c2.224,0.186 3.825,-1.102 4.445,-3.916l3.845,0.682c-0.856,4.481 -4.258,6.87 -8.515,6.515zM481.791,97.3096c-3.516,-0.294 -5.987,-3.004 -5.662,-6.903c0.324,-3.874 3.212,-6.162 6.728,-5.869c3.54,0.296 5.985,3.029 5.661,6.903c-0.325,3.898 -3.187,6.164 -6.727,5.869zM482.041,94.3196c1.554,0.13 2.782,-1.02 2.962,-3.172c0.177,-2.129 -0.843,-3.466 -2.398,-3.596c-1.554,-0.13 -2.782,1.02 -2.96,3.149c-0.179,2.152 0.841,3.49 2.396,3.619zM490.074,97.6876l1.012,-12.126l3.444,0.288l-0.162,1.937c0.742,-1.383 2.235,-1.957 3.742,-1.831c1.674,0.139 3.063,1.098 3.609,2.637c0.845,-1.471 2.537,-2.124 4.164,-1.989c2.343,0.196 4.071,2.002 3.848,4.681l-0.667,7.988l-3.516,-0.294l0.593,-7.103c0.13,-1.554 -0.498,-2.402 -1.813,-2.511c-1.244,-0.104 -2.292,0.627 -2.448,2.493l-0.565,6.768l-3.516,-0.293l0.591,-7.08c0.13,-1.554 -0.496,-2.425 -1.811,-2.535c-1.244,-0.104 -2.316,0.625 -2.472,2.491l-0.565,6.768zM511.725,99.4946l1.012,-12.126l3.444,0.288l-0.161,1.937c0.741,-1.383 2.234,-1.957 3.741,-1.831c1.674,0.139 3.063,1.098 3.609,2.637c0.845,-1.471 2.538,-2.124 4.164,-1.989c2.344,0.196 4.072,2.002 3.848,4.681l-0.667,7.988l-3.515,-0.294l0.592,-7.103c0.13,-1.555 -0.498,-2.402 -1.813,-2.511c-1.244,-0.104 -2.292,0.627 -2.448,2.493l-0.565,6.768l-3.515,-0.293l0.59,-7.08c0.13,-1.554 -0.496,-2.425 -1.811,-2.535c-1.244,-0.104 -2.316,0.625 -2.472,2.491l-0.565,6.768zM538.66,102.0556c-3.683,-0.308 -5.841,-3.016 -5.518,-6.891c0.316,-3.779 3.14,-6.168 6.488,-5.889c3.301,0.276 5.599,2.755 5.297,6.367c-0.05,0.598 -0.115,1.098 -0.229,1.594l-8.323,-0.694c0.085,1.572 1.136,2.551 2.547,2.669c1.267,0.106 2.176,-0.397 2.724,-1.483l2.655,1.378c-1.152,2.264 -3.177,3.154 -5.641,2.949zM536.545,94.2206l5.285,0.441c0.09,-1.365 -0.801,-2.523 -2.427,-2.659c-1.363,-0.114 -2.539,0.703 -2.858,2.218zM546.48,102.3946l1.012,-12.126l3.3,0.276l-0.118,1.411c0.658,-0.957 1.802,-1.391 2.976,-1.317c2.298,0.168 3.544,1.982 3.374,4.014c-0.142,1.699 -1.204,3.175 -2.813,3.691l-1.572,-2.515c0.496,-0.175 0.891,-0.576 0.939,-1.15c0.06,-0.718 -0.446,-1.29 -1.236,-1.356c-0.932,-0.077 -1.664,0.608 -1.784,2.043l-0.61,7.319zM563.439,104.1236c-3.587,-0.3 -5.738,-3.104 -5.422,-6.883c0.313,-3.755 3.116,-6.17 6.512,-5.887c3.133,0.262 5.493,2.289 5.347,5.769l-3.446,0.025c0.04,-1.634 -0.765,-2.665 -2.153,-2.78c-1.53,-0.128 -2.569,1.062 -2.745,3.166c-0.175,2.105 0.65,3.474 2.204,3.604c1.435,0.12 2.328,-0.769 2.584,-2.385l3.394,0.596c-0.457,3.454 -3.118,5.038 -6.275,4.775zM576.661,105.2266c-3.683,-0.307 -5.841,-3.016 -5.518,-6.891c0.315,-3.778 3.14,-6.168 6.488,-5.888c3.301,0.275 5.598,2.755 5.297,6.366c-0.05,0.598 -0.116,1.098 -0.229,1.595l-8.323,-0.695c0.085,1.573 1.135,2.551 2.546,2.669c1.268,0.106 2.177,-0.396 2.725,-1.482l2.655,1.377c-1.152,2.264 -3.178,3.155 -5.641,2.949zM574.545,97.3916l5.286,0.441c0.09,-1.365 -0.801,-2.523 -2.427,-2.659c-1.364,-0.114 -2.54,0.703 -2.859,2.218zM595.709,99.2546c-0.569,-0.305 -1.057,-0.514 -1.465,-0.628c-0.391,-0.129 -0.77,-0.209 -1.136,-0.24c-0.447,-0.037 -0.928,0.059 -1.445,0.289c-0.501,0.231 -0.968,0.53 -1.4,0.895l0.226,-2.703c0.433,-0.381 0.906,-0.655 1.417,-0.821c0.513,-0.182 1.072,-0.247 1.678,-0.197c0.463,0.039 0.921,0.125 1.376,0.259c0.471,0.12 1.068,0.371 1.791,0.752c0.569,0.304 1.057,0.522 1.463,0.652c0.408,0.114 0.787,0.186 1.138,0.215c0.463,0.039 0.944,-0.057 1.445,-0.288c0.501,-0.232 0.968,-0.53 1.399,-0.895l-0.225,2.702c-0.433,0.382 -0.906,0.663 -1.419,0.845c-0.512,0.166 -1.071,0.224 -1.677,0.173c-0.462,-0.038 -0.928,-0.125 -1.399,-0.261c-0.454,-0.134 -1.043,-0.384 -1.767,-0.749zM625.051,108.9516l-2.616,-6.455l-2.87,-0.24l-0.517,6.194l-3.659,-0.305l1.417,-16.981l7.127,0.595c3.898,0.325 5.795,2.699 5.544,5.713c-0.172,2.057 -1.398,3.761 -3.474,4.406l3.162,7.417zM619.816,99.2426l3.062,0.256c1.674,0.14 2.732,-0.711 2.852,-2.146c0.114,-1.364 -0.811,-2.404 -2.485,-2.544l-3.038,-0.253zM635.963,110.1756c-3.684,-0.307 -5.842,-3.016 -5.518,-6.891c0.315,-3.778 3.139,-6.168 6.488,-5.888c3.3,0.275 5.598,2.755 5.297,6.366c-0.05,0.598 -0.116,1.098 -0.23,1.595l-8.323,-0.695c0.086,1.573 1.136,2.551 2.547,2.669c1.268,0.106 2.177,-0.396 2.725,-1.482l2.654,1.377c-1.152,2.264 -3.177,3.155 -5.64,2.949zM633.847,102.3406l5.286,0.441c0.089,-1.365 -0.801,-2.523 -2.428,-2.659c-1.363,-0.114 -2.539,0.703 -2.858,2.218zM646.368,110.7306l-3.006,-12.461l3.588,0.3l1.99,9.053l3.487,-8.596l3.348,0.279l-5.054,11.789zM656.324,111.5616l1.012,-12.125l3.468,0.289l-1.012,12.126zM659.2,98.1706c-1.148,-0.096 -1.965,-0.983 -1.871,-2.107c0.095,-1.148 1.048,-1.887 2.196,-1.791c1.148,0.095 1.965,0.983 1.87,2.131c-0.094,1.124 -1.047,1.863 -2.195,1.767zM667.891,112.8406c-3.683,-0.308 -5.842,-3.017 -5.518,-6.891c0.315,-3.779 3.14,-6.168 6.488,-5.889c3.3,0.276 5.598,2.755 5.297,6.367c-0.05,0.598 -0.116,1.098 -0.23,1.594l-8.323,-0.694c0.086,1.572 1.136,2.551 2.547,2.669c1.268,0.105 2.177,-0.397 2.725,-1.483l2.655,1.378c-1.153,2.264 -3.178,3.154 -5.641,2.949zM665.775,105.0056l5.286,0.441c0.089,-1.366 -0.801,-2.524 -2.428,-2.659c-1.363,-0.114 -2.539,0.703 -2.858,2.218zM677.649,113.3416l-2.217,-12.395l3.42,0.285l1.339,8.782l2.823,-8.435l3.444,0.288l1.38,8.857l2.734,-8.514l3.276,0.274l-4.217,11.858l-4.042,-0.337l-1.27,-8.15l-2.604,7.826zM699.148,115.4966c-3.324,-0.277 -5.218,-1.832 -4.996,-4.487c0.018,-0.215 0.096,-0.57 0.159,-0.757l3.125,0.357c-0.065,0.211 -0.077,0.355 -0.091,0.522c-0.078,0.933 0.615,1.569 2.024,1.711c1.22,0.101 1.998,-0.267 2.061,-1.033c0.056,-0.669 -0.368,-1.066 -1.526,-1.331l-1.7,-0.407c-2.906,-0.676 -3.649,-2.159 -3.5,-3.953c0.186,-2.224 2.145,-3.77 5.326,-3.505c3.229,0.27 5.118,1.872 4.929,4.144c-0.02,0.24 -0.104,0.666 -0.194,0.875l-3.192,-0.411c0.059,-0.139 0.097,-0.305 0.111,-0.472c0.06,-0.717 -0.61,-1.351 -1.853,-1.455c-1.172,-0.098 -1.86,0.35 -1.91,0.948c-0.044,0.527 0.265,0.865 1.114,1.081l1.653,0.403c2.973,0.729 4.259,2.065 4.079,4.217c-0.232,2.775 -2.486,3.815 -5.619,3.553zM723.561,109.9236c-0.569,-0.304 -1.057,-0.513 -1.465,-0.628c-0.39,-0.128 -0.769,-0.208 -1.136,-0.239c-0.446,-0.037 -0.928,0.059 -1.445,0.289c-0.501,0.231 -0.967,0.529 -1.399,0.895l0.225,-2.703c0.434,-0.381 0.906,-0.655 1.418,-0.821c0.512,-0.182 1.072,-0.248 1.678,-0.197c0.462,0.039 0.921,0.125 1.375,0.259c0.472,0.12 1.069,0.37 1.792,0.752c0.568,0.304 1.056,0.522 1.463,0.652c0.407,0.114 0.787,0.186 1.138,0.215c0.462,0.039 0.944,-0.058 1.445,-0.289c0.501,-0.231 0.967,-0.529 1.399,-0.894l-0.226,2.702c-0.433,0.382 -0.906,0.663 -1.419,0.845c-0.511,0.166 -1.07,0.224 -1.676,0.173c-0.462,-0.038 -0.929,-0.125 -1.399,-0.261c-0.455,-0.134 -1.044,-0.384 -1.768,-0.75zM744.779,119.3296c-4.855,-0.406 -7.776,-4.358 -7.329,-9.716c0.447,-5.357 4.051,-8.428 8.81,-8.031c4.257,0.356 7.215,3.3 7.318,7.836l-3.905,0.035c-0.145,-2.878 -1.51,-4.412 -3.734,-4.598c-2.344,-0.196 -4.325,1.614 -4.629,5.249c-0.303,3.636 1.351,5.748 3.695,5.944c2.224,0.186 3.825,-1.102 4.445,-3.916l3.844,0.682c-0.855,4.481 -4.258,6.87 -8.515,6.515zM760.292,120.5516c-3.516,-0.293 -5.987,-3.004 -5.662,-6.903c0.323,-3.874 3.212,-6.162 6.727,-5.869c3.54,0.296 5.985,3.029 5.662,6.903c-0.325,3.899 -3.188,6.164 -6.727,5.869zM760.541,117.5616c1.555,0.13 2.783,-1.02 2.962,-3.172c0.178,-2.129 -0.842,-3.466 -2.397,-3.596c-1.555,-0.13 -2.782,1.02 -2.96,3.149c-0.18,2.152 0.841,3.49 2.395,3.619zM768.575,120.9296l1.012,-12.126l3.444,0.288l-0.162,1.937c0.742,-1.383 2.235,-1.957 3.741,-1.831c1.674,0.139 3.064,1.098 3.609,2.637c0.846,-1.471 2.538,-2.124 4.164,-1.989c2.344,0.196 4.072,2.002 3.848,4.681l-0.666,7.983l-3.516,-0.29l0.593,-7.102c0.129,-1.554 -0.498,-2.402 -1.814,-2.511c-1.243,-0.104 -2.292,0.627 -2.448,2.493l-0.564,6.768l-3.516,-0.293l0.591,-7.08c0.129,-1.554 -0.496,-2.425 -1.812,-2.535c-1.243,-0.104 -2.316,0.626 -2.471,2.491l-0.565,6.769zM790.226,122.7396l1.012,-12.129l3.444,0.288l-0.162,1.937c0.742,-1.383 2.235,-1.957 3.742,-1.831c1.674,0.139 3.063,1.098 3.609,2.637c0.845,-1.471 2.537,-2.124 4.164,-1.989c2.343,0.196 4.071,2.002 3.848,4.681l-0.667,7.986l-3.516,-0.29l0.593,-7.105c0.13,-1.554 -0.498,-2.402 -1.813,-2.511c-1.244,-0.104 -2.293,0.627 -2.448,2.493l-0.565,6.773l-3.516,-0.3l0.591,-7.078c0.13,-1.554 -0.496,-2.425 -1.811,-2.535c-1.244,-0.104 -2.317,0.625 -2.472,2.491l-0.565,6.772zM815.975,125.0796c-2.368,-0.2 -4.119,-2.01 -3.898,-4.662l0.669,-8.012l3.516,0.294l-0.591,7.079c-0.13,1.554 0.52,2.431 1.883,2.541c1.267,0.11 2.294,-0.651 2.45,-2.517l0.563,-6.744l3.468,0.289l-1.012,12.122l-3.444,-0.28l0.155,-1.87c-0.761,1.33 -2.276,1.88 -3.759,1.76zM825.844,125.7096l1.012,-12.126l3.444,0.287l-0.157,1.89c0.789,-1.38 2.302,-1.904 3.809,-1.778c2.367,0.198 4.145,1.984 3.924,4.639l-0.671,8.038l-3.516,-0.3l0.593,-7.099c0.13,-1.555 -0.546,-2.406 -1.909,-2.52c-1.268,-0.105 -2.34,0.624 -2.496,2.489l-0.565,6.77zM839.858,126.8796l1.012,-12.127l3.468,0.29l-1.012,12.127zM842.734,113.4876c-1.148,-0.096 -1.965,-0.983 -1.871,-2.107c0.095,-1.148 1.048,-1.887 2.196,-1.792c1.148,0.096 1.965,0.983 1.869,2.131c-0.093,1.124 -1.046,1.864 -2.194,1.768zM851.496,128.1596c-2.87,-0.24 -4.406,-2.03 -4.167,-4.9l0.428,-5.114l-1.842,-0.154l0.233,-2.798l1.842,0.153l0.285,-3.42l3.444,0.288l-0.285,3.42l4.831,0.403l-0.233,2.798l-4.831,-0.403l-0.43,5.147c-0.077,0.93 0.355,1.52 1.12,1.58c0.67,0.06 1.16,-0.33 1.214,-0.98c0.024,-0.29 -0.048,-0.58 -0.193,-0.86l2.613,-1.01c0.466,0.76 0.608,1.66 0.542,2.45c-0.19,2.28 -2.035,3.61 -4.571,3.4zM859.93,133.1296c-2.607,-0.22 -3.976,-1.99 -3.816,-3.91c0.052,-0.62 0.245,-1.2 0.528,-1.71l2.82,1.13c-0.062,0.16 -0.123,0.32 -0.141,0.54c-0.044,0.52 0.259,0.93 0.88,0.99c0.575,0.04 0.941,-0.31 1.206,-0.89l0.319,-0.65l-3.777,-12.451l3.827,0.319l2.187,8.132l3.433,-7.663l3.349,0.279l-6.107,12.854c-0.967,2.07 -2.316,3.23 -4.708,3.03zM888.13,123.6596c-0.569,-0.31 -1.057,-0.52 -1.465,-0.63c-0.391,-0.13 -0.77,-0.21 -1.136,-0.24c-0.447,-0.04 -0.928,0.06 -1.445,0.29c-0.501,0.23 -0.968,0.53 -1.4,0.89l0.226,-2.698c0.433,-0.381 0.906,-0.655 1.417,-0.821c0.513,-0.182 1.072,-0.248 1.678,-0.197c0.463,0.039 0.921,0.125 1.376,0.259c0.471,0.12 1.068,0.37 1.791,0.752c0.569,0.304 1.056,0.521 1.463,0.652c0.408,0.113 0.787,0.183 1.138,0.213c0.462,0.04 0.944,-0.06 1.445,-0.287c0.501,-0.231 0.967,-0.529 1.399,-0.894l-0.225,2.701c-0.433,0.38 -0.906,0.66 -1.419,0.85c-0.512,0.16 -1.071,0.22 -1.677,0.17c-0.462,-0.04 -0.928,-0.13 -1.399,-0.26c-0.454,-0.14 -1.043,-0.39 -1.767,-0.75zM909.348,133.0596c-4.855,-0.4 -7.777,-4.35 -7.33,-9.71c0.447,-5.359 4.051,-8.43 8.811,-8.033c4.257,0.356 7.214,3.3 7.317,7.833l-3.904,0.04c-0.145,-2.88 -1.51,-4.414 -3.735,-4.6c-2.343,-0.196 -4.325,1.614 -4.628,5.25c-0.304,3.63 1.35,5.75 3.694,5.94c2.225,0.19 3.825,-1.1 4.445,-3.91l3.845,0.68c-0.856,4.48 -4.258,6.87 -8.515,6.51zM924.86,134.2896c-3.516,-0.3 -5.987,-3.01 -5.661,-6.91c0.323,-3.87 3.211,-6.159 6.727,-5.866c3.54,0.296 5.985,3.026 5.662,6.906c-0.326,3.9 -3.188,6.16 -6.728,5.87zM925.11,131.2996c1.554,0.13 2.782,-1.02 2.962,-3.18c0.177,-2.12 -0.843,-3.46 -2.397,-3.59c-1.555,-0.13 -2.783,1.02 -2.961,3.15c-0.179,2.15 0.841,3.49 2.396,3.62zM933.143,134.6596l1.012,-12.12l3.444,0.29l-0.161,1.93c0.741,-1.38 2.234,-1.95 3.741,-1.83c1.674,0.14 3.063,1.1 3.609,2.64c0.845,-1.47 2.537,-2.13 4.164,-1.99c2.344,0.2 4.071,2 3.848,4.68l-0.667,7.99l-3.516,-0.29l0.593,-7.11c0.13,-1.55 -0.498,-2.4 -1.813,-2.51c-1.244,-0.1 -2.292,0.63 -2.448,2.49l-0.565,6.77l-3.516,-0.29l0.591,-7.08c0.13,-1.56 -0.496,-2.43 -1.811,-2.54c-1.244,-0.1 -2.316,0.63 -2.472,2.5l-0.565,6.76zM954.795,136.4696l1.011,-12.12l3.445,0.28l-0.162,1.94c0.741,-1.38 2.234,-1.96 3.741,-1.83c1.674,0.14 3.063,1.1 3.609,2.64c0.846,-1.47 2.538,-2.13 4.164,-1.99c2.344,0.19 4.072,2 3.848,4.68l-0.666,7.99l-3.516,-0.3l0.593,-7.1c0.129,-1.56 -0.498,-2.4 -1.814,-2.51c-1.244,-0.11 -2.292,0.63 -2.448,2.49l-0.565,6.77l-3.515,-0.29l0.59,-7.08c0.13,-1.56 -0.495,-2.43 -1.811,-2.54c-1.244,-0.1 -2.316,0.63 -2.472,2.49l-0.565,6.77zM981.729,139.0296c-3.683,-0.31 -5.841,-3.01 -5.518,-6.89c0.316,-3.78 3.14,-6.17 6.489,-5.89c3.3,0.28 5.598,2.76 5.296,6.37c-0.049,0.6 -0.115,1.1 -0.229,1.59l-8.323,-0.69c0.086,1.57 1.136,2.55 2.547,2.67c1.267,0.1 2.176,-0.4 2.725,-1.48l2.654,1.37c-1.152,2.27 -3.177,3.16 -5.641,2.95zM979.614,131.1996l5.285,0.44c0.09,-1.37 -0.801,-2.53 -2.427,-2.66c-1.363,-0.11 -2.539,0.7 -2.858,2.22zM989.549,139.3696l1.012,-12.12l3.3,0.27l-0.118,1.41c0.658,-0.95 1.802,-1.39 2.976,-1.32c2.298,0.17 3.541,1.99 3.371,4.02c-0.139,1.7 -1.201,3.17 -2.81,3.69l-1.572,-2.52c0.496,-0.17 0.891,-0.57 0.939,-1.15c0.06,-0.71 -0.446,-1.28 -1.235,-1.35c-0.933,-0.08 -1.665,0.61 -1.785,2.04l-0.61,7.32zM1006.51,141.0996c-3.59,-0.3 -5.74,-3.1 -5.42,-6.88c0.31,-3.76 3.11,-6.17 6.51,-5.89c3.13,0.26 5.49,2.29 5.34,5.77l-3.44,0.02c0.04,-1.63 -0.77,-2.66 -2.15,-2.78c-1.53,-0.12 -2.57,1.07 -2.75,3.17c-0.17,2.11 0.65,3.47 2.21,3.6c1.43,0.12 2.32,-0.76 2.58,-2.38l3.39,0.6c-0.45,3.45 -3.11,5.03 -6.27,4.77zM1019.73,142.1996c-3.68,-0.3 -5.84,-3.01 -5.52,-6.89c0.32,-3.78 3.14,-6.17 6.49,-5.89c3.3,0.28 5.6,2.76 5.3,6.37c-0.05,0.6 -0.12,1.1 -0.23,1.59l-8.33,-0.69c0.09,1.57 1.14,2.55 2.55,2.67c1.27,0.1 2.18,-0.4 2.73,-1.48l2.65,1.37c-1.15,2.27 -3.18,3.16 -5.64,2.95zM1017.61,134.3696l5.29,0.44c0.09,-1.37 -0.8,-2.52 -2.43,-2.66c-1.36,-0.11 -2.54,0.7 -2.86,2.22zM1038.78,136.2296c-0.57,-0.3 -1.06,-0.51 -1.47,-0.63c-0.39,-0.13 -0.77,-0.21 -1.13,-0.24c-0.45,-0.03 -0.93,0.06 -1.45,0.29c-0.5,0.23 -0.97,0.53 -1.4,0.9l0.23,-2.71c0.43,-0.38 0.9,-0.65 1.42,-0.82c0.51,-0.18 1.07,-0.24 1.67,-0.19c0.47,0.03 0.92,0.12 1.38,0.26c0.47,0.12 1.07,0.37 1.79,0.75c0.57,0.3 1.06,0.52 1.46,0.65c0.41,0.11 0.79,0.19 1.14,0.21c0.46,0.04 0.95,-0.05 1.45,-0.28c0.5,-0.24 0.96,-0.53 1.4,-0.9l-0.23,2.7c-0.43,0.38 -0.91,0.67 -1.42,0.85c-0.51,0.16 -1.07,0.22 -1.68,0.17c-0.46,-0.04 -0.92,-0.12 -1.39,-0.26c-0.46,-0.13 -1.05,-0.38 -1.77,-0.75zM1068.12,145.9296l-2.62,-6.46l-2.87,-0.24l-0.51,6.2l-3.66,-0.31l1.41,-16.98l7.13,0.6c3.9,0.32 5.8,2.7 5.55,5.71c-0.18,2.06 -1.4,3.76 -3.48,4.41l3.16,7.41zM1062.89,136.2196l3.06,0.25c1.67,0.14 2.73,-0.71 2.85,-2.14c0.11,-1.36 -0.81,-2.4 -2.49,-2.54l-3.03,-0.26zM1079.03,147.1496c-3.68,-0.31 -5.84,-3.01 -5.52,-6.89c0.32,-3.78 3.14,-6.17 6.49,-5.89c3.3,0.28 5.6,2.76 5.3,6.37c-0.05,0.6 -0.12,1.1 -0.23,1.59l-8.32,-0.69c0.08,1.57 1.13,2.55 2.54,2.67c1.27,0.1 2.18,-0.4 2.73,-1.48l2.65,1.37c-1.15,2.27 -3.17,3.16 -5.64,2.95zM1076.92,139.3196l5.28,0.44c0.09,-1.37 -0.8,-2.53 -2.43,-2.66c-1.36,-0.11 -2.53,0.7 -2.85,2.22zM1089.44,147.7096l-3.01,-12.46l3.59,0.3l1.99,9.05l3.49,-8.6l3.34,0.28l-5.05,11.79zM1099.39,148.5396l1.02,-12.13l3.46,0.29l-1.01,12.13zM1102.27,135.1496c-1.15,-0.1 -1.97,-0.99 -1.87,-2.11c0.09,-1.15 1.05,-1.89 2.19,-1.79c1.15,0.09 1.97,0.98 1.87,2.13c-0.09,1.12 -1.04,1.86 -2.19,1.77zM1110.96,149.8196c-3.68,-0.31 -5.84,-3.02 -5.52,-6.89c0.32,-3.78 3.14,-6.17 6.49,-5.89c3.3,0.27 5.6,2.75 5.3,6.36c-0.05,0.6 -0.12,1.1 -0.23,1.6l-8.33,-0.7c0.09,1.58 1.14,2.55 2.55,2.67c1.27,0.11 2.18,-0.39 2.73,-1.48l2.65,1.38c-1.15,2.26 -3.18,3.15 -5.64,2.95zM1108.84,141.9796l5.29,0.44c0.09,-1.36 -0.8,-2.52 -2.43,-2.66c-1.36,-0.11 -2.54,0.71 -2.86,2.22zM1120.72,150.3196l-2.22,-12.4l3.42,0.29l1.34,8.78l2.82,-8.43l3.45,0.28l1.38,8.86l2.73,-8.51l3.28,0.27l-4.22,11.86l-4.04,-0.34l-1.27,-8.15l-2.61,7.83zM1142.22,152.4696c-3.33,-0.27 -5.22,-1.83 -5,-4.48c0.02,-0.22 0.1,-0.57 0.16,-0.76l3.13,0.36c-0.07,0.21 -0.08,0.35 -0.1,0.52c-0.07,0.93 0.62,1.57 2.03,1.71c1.22,0.1 2,-0.27 2.06,-1.03c0.06,-0.67 -0.37,-1.07 -1.53,-1.34l-1.7,-0.4c-2.9,-0.68 -3.65,-2.16 -3.5,-3.95c0.19,-2.23 2.15,-3.78 5.33,-3.51c3.23,0.27 5.12,1.87 4.93,4.14c-0.02,0.24 -0.11,0.67 -0.2,0.88l-3.19,-0.41c0.06,-0.14 0.1,-0.31 0.11,-0.47c0.06,-0.72 -0.61,-1.36 -1.85,-1.46c-1.17,-0.1 -1.86,0.35 -1.91,0.95c-0.04,0.53 0.27,0.86 1.11,1.08l1.66,0.4c2.97,0.73 4.26,2.07 4.08,4.22c-0.24,2.77 -2.49,3.81 -5.62,3.55zM1166.63,146.8996c-0.57,-0.3 -1.06,-0.51 -1.46,-0.63c-0.4,-0.13 -0.77,-0.21 -1.14,-0.24c-0.45,-0.03 -0.93,0.06 -1.45,0.29c-0.5,0.23 -0.96,0.53 -1.4,0.9l0.23,-2.71c0.43,-0.38 0.91,-0.65 1.42,-0.82c0.51,-0.18 1.07,-0.24 1.68,-0.19c0.46,0.03 0.92,0.12 1.37,0.26c0.47,0.11 1.07,0.37 1.79,0.75c0.57,0.3 1.06,0.52 1.47,0.65c0.4,0.11 0.78,0.18 1.13,0.21c0.47,0.04 0.95,-0.05 1.45,-0.28c0.5,-0.24 0.97,-0.53 1.4,-0.9l-0.23,2.7c-0.43,0.38 -0.9,0.67 -1.42,0.85c-0.51,0.16 -1.07,0.22 -1.67,0.17c-0.47,-0.04 -0.93,-0.12 -1.4,-0.26c-0.46,-0.13 -1.05,-0.38 -1.77,-0.75zM1187.85,156.3096c-4.86,-0.41 -7.78,-4.36 -7.33,-9.72c0.45,-5.36 4.05,-8.43 8.81,-8.03c4.26,0.35 7.21,3.3 7.32,7.84l-3.91,0.03c-0.14,-2.88 -1.51,-4.41 -3.73,-4.6c-2.35,-0.19 -4.33,1.62 -4.63,5.25c-0.3,3.64 1.35,5.75 3.69,5.95c2.23,0.18 3.83,-1.11 4.45,-3.92l3.84,0.68c-0.85,4.48 -4.25,6.87 -8.51,6.52zM1203.36,157.5296c-3.51,-0.3 -5.99,-3.01 -5.66,-6.9c0.32,-3.88 3.21,-6.17 6.73,-5.87c3.54,0.29 5.98,3.02 5.66,6.9c-0.33,3.9 -3.19,6.16 -6.73,5.87zM1203.61,154.5396c1.55,0.13 2.78,-1.02 2.96,-3.17c0.18,-2.13 -0.84,-3.47 -2.39,-3.6c-1.56,-0.13 -2.79,1.02 -2.96,3.15c-0.18,2.15 0.84,3.49 2.39,3.62zM1211.64,157.9096l1.02,-12.13l3.44,0.29l-0.16,1.93c0.74,-1.38 2.23,-1.95 3.74,-1.83c1.67,0.14 3.06,1.1 3.61,2.64c0.84,-1.47 2.54,-2.12 4.16,-1.99c2.35,0.2 4.07,2 3.85,4.68l-0.67,7.99l-3.51,-0.29l0.59,-7.11c0.13,-1.55 -0.5,-2.4 -1.81,-2.51c-1.25,-0.1 -2.29,0.63 -2.45,2.5l-0.57,6.76l-3.51,-0.29l0.59,-7.08c0.13,-1.55 -0.5,-2.42 -1.81,-2.53c-1.25,-0.11 -2.32,0.62 -2.47,2.49l-0.57,6.77zM1233.3,159.7096l1.01,-12.12l3.44,0.28l-0.16,1.94c0.74,-1.38 2.23,-1.96 3.74,-1.83c1.67,0.14 3.06,1.1 3.61,2.64c0.85,-1.47 2.54,-2.13 4.16,-1.99c2.35,0.19 4.08,2 3.85,4.68l-0.66,7.99l-3.52,-0.3l0.59,-7.1c0.13,-1.55 -0.5,-2.4 -1.81,-2.51c-1.24,-0.1 -2.29,0.63 -2.45,2.49l-0.56,6.77l-3.52,-0.29l0.59,-7.08c0.13,-1.56 -0.49,-2.43 -1.81,-2.54c-1.24,-0.1 -2.32,0.63 -2.47,2.49l-0.57,6.77zM1259.04,162.0496c-2.36,-0.19 -4.12,-2 -3.89,-4.66l0.66,-8.01l3.52,0.3l-0.59,7.07c-0.13,1.56 0.52,2.43 1.88,2.55c1.27,0.1 2.3,-0.66 2.45,-2.52l0.57,-6.75l3.46,0.29l-1.01,12.13l-3.44,-0.29l0.15,-1.86c-0.76,1.33 -2.27,1.88 -3.76,1.75zM1268.91,162.6896l1.02,-12.13l3.44,0.29l-0.16,1.89c0.79,-1.38 2.3,-1.91 3.81,-1.78c2.37,0.2 4.15,1.98 3.92,4.64l-0.67,8.03l-3.51,-0.29l0.59,-7.1c0.13,-1.56 -0.54,-2.41 -1.91,-2.52c-1.27,-0.11 -2.34,0.62 -2.49,2.49l-0.57,6.76zM1282.93,163.8596l1.01,-12.13l3.47,0.29l-1.01,12.12zM1285.8,150.4596c-1.15,-0.09 -1.96,-0.98 -1.87,-2.1c0.1,-1.15 1.05,-1.89 2.2,-1.79c1.15,0.09 1.96,0.98 1.87,2.13c-0.1,1.12 -1.05,1.86 -2.2,1.76zM1294.57,165.1396c-2.87,-0.24 -4.41,-2.03 -4.17,-4.9l0.43,-5.12l-1.85,-0.15l0.24,-2.8l1.84,0.15l0.28,-3.42l3.45,0.29l-0.29,3.42l4.83,0.4l-0.23,2.8l-4.83,-0.4l-0.43,5.14c-0.08,0.93 0.36,1.52 1.12,1.59c0.67,0.05 1.16,-0.34 1.21,-0.98c0.03,-0.29 -0.04,-0.59 -0.19,-0.86l2.61,-1.01c0.47,0.76 0.61,1.66 0.55,2.45c-0.19,2.27 -2.04,3.61 -4.57,3.4zM1303,170.1096c-2.61,-0.22 -3.98,-2 -3.82,-3.91c0.05,-0.62 0.25,-1.21 0.53,-1.71l2.82,1.12c-0.06,0.16 -0.12,0.33 -0.14,0.54c-0.04,0.53 0.26,0.94 0.88,0.99c0.57,0.05 0.94,-0.3 1.21,-0.88l0.32,-0.65l-3.78,-12.46l3.82,0.32l2.19,8.13l3.44,-7.66l3.34,0.28l-6.1,12.86c-0.97,2.06 -2.32,3.23 -4.71,3.03zM1331.2,160.6296c-0.57,-0.3 -1.06,-0.51 -1.47,-0.62c-0.39,-0.13 -0.77,-0.21 -1.13,-0.24c-0.45,-0.04 -0.93,0.06 -1.45,0.29c-0.5,0.23 -0.96,0.53 -1.4,0.89l0.23,-2.7c0.43,-0.38 0.9,-0.66 1.42,-0.82c0.51,-0.18 1.07,-0.25 1.67,-0.2c0.47,0.04 0.93,0.12 1.38,0.26c0.47,0.12 1.07,0.37 1.79,0.75c0.57,0.31 1.06,0.52 1.46,0.65c0.41,0.12 0.79,0.19 1.14,0.22c0.46,0.04 0.95,-0.06 1.45,-0.29c0.5,-0.23 0.96,-0.53 1.4,-0.9l-0.23,2.71c-0.43,0.38 -0.91,0.66 -1.42,0.84c-0.51,0.17 -1.07,0.23 -1.67,0.18c-0.47,-0.04 -0.93,-0.13 -1.4,-0.27c-0.46,-0.13 -1.05,-0.38 -1.77,-0.75zM1352.42,170.0396c-4.86,-0.41 -7.78,-4.36 -7.33,-9.72c0.44,-5.35 4.05,-8.42 8.81,-8.03c4.26,0.36 7.21,3.3 7.32,7.84l-3.91,0.03c-0.14,-2.87 -1.51,-4.41 -3.73,-4.59c-2.35,-0.2 -4.33,1.61 -4.63,5.25c-0.31,3.63 1.35,5.74 3.69,5.94c2.23,0.18 3.83,-1.1 4.45,-3.92l3.84,0.69c-0.85,4.48 -4.26,6.86 -8.51,6.51zM1367.93,171.2596c-3.52,-0.29 -5.99,-3 -5.66,-6.9c0.32,-3.88 3.21,-6.16 6.73,-5.87c3.53,0.3 5.98,3.03 5.66,6.9c-0.33,3.9 -3.19,6.17 -6.73,5.87zM1368.18,168.2696c1.55,0.13 2.78,-1.02 2.96,-3.17c0.18,-2.13 -0.84,-3.47 -2.4,-3.6c-1.55,-0.13 -2.78,1.02 -2.96,3.15c-0.18,2.16 0.84,3.49 2.4,3.62zM1376.21,171.6396l1.01,-12.13l3.45,0.29l-0.16,1.94c0.74,-1.38 2.23,-1.96 3.74,-1.83c1.67,0.14 3.06,1.1 3.61,2.64c0.84,-1.48 2.53,-2.13 4.16,-1.99c2.34,0.19 4.07,2 3.85,4.68l-0.67,7.98l-3.51,-0.29l0.59,-7.1c0.13,-1.56 -0.5,-2.4 -1.81,-2.51c-1.25,-0.11 -2.3,0.62 -2.45,2.49l-0.57,6.77l-3.51,-0.3l0.59,-7.07c0.13,-1.56 -0.5,-2.43 -1.81,-2.54c-1.25,-0.1 -2.32,0.63 -2.47,2.49l-0.57,6.77zM1397.86,173.4496l1.02,-12.13l3.44,0.29l-0.16,1.94c0.74,-1.39 2.23,-1.96 3.74,-1.84c1.67,0.14 3.06,1.1 3.61,2.64c0.84,-1.47 2.54,-2.12 4.16,-1.99c2.35,0.2 4.07,2 3.85,4.68l-0.67,7.99l-3.51,-0.29l0.59,-7.1c0.13,-1.56 -0.5,-2.41 -1.81,-2.52c-1.25,-0.1 -2.29,0.63 -2.45,2.5l-0.57,6.77l-3.51,-0.3l0.59,-7.08c0.13,-1.55 -0.5,-2.42 -1.81,-2.53c-1.25,-0.11 -2.32,0.62 -2.47,2.49l-0.57,6.77zM1424.8,176.0096c-3.68,-0.31 -5.84,-3.02 -5.52,-6.89c0.32,-3.78 3.14,-6.17 6.49,-5.89c3.3,0.27 5.6,2.75 5.3,6.36c-0.05,0.6 -0.12,1.1 -0.23,1.6l-8.33,-0.7c0.09,1.58 1.14,2.56 2.55,2.67c1.27,0.11 2.18,-0.39 2.72,-1.48l2.66,1.38c-1.15,2.26 -3.18,3.15 -5.64,2.95zM1422.68,168.1696l5.29,0.44c0.09,-1.36 -0.8,-2.52 -2.43,-2.66c-1.36,-0.11 -2.54,0.71 -2.86,2.22zM1432.62,176.3496l1.01,-12.13l3.3,0.28l-0.12,1.41c0.66,-0.96 1.8,-1.39 2.98,-1.32c2.3,0.17 3.54,1.98 3.37,4.02c-0.14,1.69 -1.2,3.17 -2.81,3.69l-1.57,-2.52c0.49,-0.17 0.89,-0.58 0.94,-1.15c0.06,-0.72 -0.45,-1.29 -1.24,-1.35c-0.93,-0.08 -1.66,0.6 -1.78,2.04l-0.61,7.32zM1449.58,178.0796c-3.59,-0.3 -5.74,-3.11 -5.42,-6.89c0.31,-3.75 3.11,-6.17 6.51,-5.88c3.13,0.26 5.49,2.28 5.34,5.76l-3.44,0.03c0.04,-1.63 -0.77,-2.66 -2.15,-2.78c-1.54,-0.13 -2.57,1.06 -2.75,3.17c-0.17,2.1 0.65,3.47 2.2,3.6c1.44,0.12 2.33,-0.77 2.59,-2.39l3.39,0.6c-0.45,3.46 -3.12,5.04 -6.27,4.78zM1462.8,179.1796c-3.68,-0.31 -5.84,-3.02 -5.52,-6.89c0.32,-3.78 3.14,-6.17 6.49,-5.89c3.3,0.28 5.6,2.75 5.3,6.37c-0.05,0.59 -0.12,1.09 -0.23,1.59l-8.33,-0.69c0.09,1.57 1.14,2.55 2.55,2.67c1.27,0.1 2.18,-0.4 2.73,-1.49l2.65,1.38c-1.15,2.26 -3.18,3.15 -5.64,2.95zM1460.68,171.3396l5.29,0.45c0.09,-1.37 -0.8,-2.53 -2.43,-2.66c-1.36,-0.12 -2.54,0.7 -2.86,2.21z" fill="white"/>
</g></g></g><defs><clipPath id="clip0_16785_3319">
<rect width="1512" height="7421" fill="white" x="0" y="-878.0004"/>
</clipPath></defs></svg>