<svg viewBox="0 0 1512 298.2564" fill="none" xmlns="http://www.w3.org/2000/svg" xmlns:xlink="http://www.w3.org/1999/xlink" x="0" y="0"><g id="Group 9">
<g id="Group 6_2">
<rect id="Rectangle 26_2" x="-113.369" y="225.67000000000007" width="2020.56" height="71.2538" transform="rotate(-5.26948, -113.369, 225.67000000000007)" fill="#BDFF18" stroke="black" stroke-width="3"/>
</g>
<path id="Community ~ Commerce ~ Reviews ~ Community ~ Commerce ~ Reviews ~ Community ~ Commerce ~ Reviews ~ Community ~ Commerce_2" d="M-71.9651,265.35c-4.8514,0.45 -8.4172,-2.93 -8.9109,-8.29c-0.4937,-5.35 2.5196,-9 7.2754,-9.44c4.2539,-0.39 7.6793,1.99 8.5717,6.44l-3.8385,0.72c-0.6447,-2.81 -2.2565,-4.09 -4.479,-3.88c-2.3421,0.21 -3.9777,2.34 -3.6426,5.97c0.335,3.64 2.332,5.43 4.6741,5.21c2.2226,-0.2 3.5742,-1.75 3.6943,-4.63h3.9047c-0.0614,4.56 -2.9953,7.51 -7.2492,7.9zM-56.4771,263.85c-3.5131,0.33 -6.4189,-1.91 -6.7782,-5.81c-0.3571,-3.87 2.0881,-6.63 5.6012,-6.95c3.537,-0.33 6.4212,1.94 6.7783,5.81c0.3592,3.9 -2.0643,6.63 -5.6013,6.95zM-56.7526,260.86c1.5534,-0.14 2.562,-1.49 2.3637,-3.64c-0.1962,-2.12 -1.4341,-3.26 -2.9875,-3.12c-1.5534,0.14 -2.562,1.49 -2.3658,3.62c0.1984,2.15 1.4362,3.29 2.9896,3.14zM-48.2549,262.78l-1.1175,-12.12l3.4414,-0.31l0.1785,1.93c0.4891,-1.49 1.8591,-2.31 3.3647,-2.45c1.6729,-0.16 3.2079,0.54 4.0137,1.96c0.5759,-1.59 2.1282,-2.53 3.7534,-2.68c2.342,-0.22 4.3582,1.26 4.6051,3.94l0.7361,7.98l-3.513,0.32l-0.6547,-7.09c-0.1433,-1.56 -0.909,-2.28 -2.2235,-2.16c-1.2427,0.11 -2.1476,1.02 -1.9757,2.88l0.6238,6.76l-3.5131,0.33l-0.6524,-7.08c-0.1433,-1.55 -0.9113,-2.3 -2.2257,-2.18c-1.2427,0.12 -2.1715,1.02 -1.9996,2.89l0.6238,6.76zM-26.6202,260.78l-1.1175,-12.11l3.4414,-0.32l0.1785,1.94c0.4892,-1.49 1.8591,-2.32 3.3648,-2.46c1.6729,-0.15 3.2078,0.55 4.0136,1.97c0.5759,-1.6 2.1283,-2.54 3.7534,-2.69c2.3421,-0.21 4.35823,1.27 4.6051,3.94l0.73619,7.98l-3.51309,0.33l-0.6546,-7.1c-0.1433,-1.55 -0.9091,-2.28 -2.2235,-2.16c-1.2428,0.12 -2.1477,1.02 -1.9757,2.89l0.6237,6.76l-3.513,0.32l-0.6525,-7.07c-0.1432,-1.55 -0.9112,-2.3 -2.2257,-2.18c-1.2427,0.11 -2.1715,1.02 -1.9996,2.88l0.6238,6.77zM-0.85725,258.6c-2.36596,0.22 -4.40603,-1.26 -4.6507,-3.91l-0.73839,-8l3.51309,-0.33l0.65243,7.08c0.14327,1.55 0.93517,2.3 2.29739,2.17c1.26662,-0.12 2.14542,-1.04 1.9735,-2.91l-0.62158,-6.73l3.4653,-0.32l1.11751,12.11l-3.4414,0.32l-0.17192,-1.86c-0.51742,1.44 -1.91352,2.24 -3.39523,2.38zM8.97095,257.5l-1.11751,-12.11l3.44136,-0.32l0.1742,1.89c0.5369,-1.5 1.9352,-2.28 3.4408,-2.42c2.3659,-0.22 4.4277,1.23 4.6724,3.89l0.7406,8.03l-3.5131,0.32l-0.6547,-7.1c-0.1432,-1.55 -0.9568,-2.27 -2.319,-2.15c-1.2667,0.12 -2.1955,1.03 -2.0235,2.89l0.6237,6.76zM22.974,256.21l-1.1175,-12.12l3.4653,-0.32l1.1175,12.12zM23.4711,242.52c-1.1472,0.11 -2.1064,-0.62 -2.21,-1.75c-0.1058,-1.14 0.7036,-2.04 1.8507,-2.14c1.1471,-0.11 2.1063,0.62 2.2121,1.77c0.1036,1.12 -0.7057,2.02 -1.8528,2.12zM34.6579,255.45c-2.8678,0.26 -4.6928,-1.23 -4.9573,-4.1l-0.4717,-5.12l-1.8402,0.17l-0.2579,-2.79l1.8402,-0.17l-0.3152,-3.42l3.4414,-0.32l0.3152,3.42l4.8275,-0.44l0.2579,2.79l-4.8275,0.45l0.4739,5.13c0.0859,0.94 0.6146,1.44 1.3794,1.37c0.6691,-0.06 1.0835,-0.53 1.024,-1.18c-0.0264,-0.28 -0.1485,-0.56 -0.34,-0.81l2.3969,-1.45c0.5919,0.67 0.8886,1.53 0.9613,2.32c0.2094,2.27 -1.3747,3.91 -3.9079,4.15zM43.8283,258.87c-2.6049,0.24 -4.2626,-1.27 -4.4389,-3.19c-0.0574,-0.62 0.0309,-1.23 0.2214,-1.78l2.9733,0.62c-0.0324,0.17 -0.0647,0.35 -0.0449,0.56c0.0485,0.53 0.4184,0.88 1.0397,0.82c0.5736,-0.05 0.8729,-0.47 1.0329,-1.08l0.2011,-0.7l-5.8906,-11.6l3.8238,-0.35l3.5713,7.62l2.0449,-8.14l3.3458,-0.31l-3.7715,13.73c-0.5925,2.19 -1.7184,3.58 -4.1083,3.8zM69.9447,244.62c-0.613,-0.2 -1.1303,-0.32 -1.5519,-0.36c-0.4071,-0.06 -0.7939,-0.07 -1.1603,-0.04c-0.4461,0.04 -0.9037,0.22 -1.3726,0.54c-0.453,0.31 -0.8603,0.69 -1.2218,1.12l-0.2491,-2.7c0.3601,-0.45 0.7776,-0.8 1.2524,-1.05c0.4733,-0.27 1.0127,-0.43 1.6181,-0.49c0.462,-0.04 0.9285,-0.04 1.3993,0.02c0.4854,0.03 1.1171,0.18 1.8953,0.43c0.613,0.2 1.1311,0.32 1.5541,0.38c0.4216,0.04 0.8077,0.05 1.1582,0.02c0.462,-0.05 0.9195,-0.23 1.3725,-0.54c0.453,-0.32 0.8603,-0.69 1.2219,-1.13l0.2491,2.7c-0.3602,0.46 -0.7769,0.82 -1.2502,1.08c-0.4748,0.26 -1.0149,0.41 -1.6203,0.47c-0.4621,0.04 -0.9365,0.04 -1.4233,-0.02c-0.4708,-0.05 -1.0946,-0.19 -1.8714,-0.43zM92.4776,250.19c-4.8514,0.44 -8.4172,-2.94 -8.9109,-8.29c-0.4937,-5.36 2.5196,-9.01 7.2754,-9.45c4.2539,-0.39 7.6793,1.99 8.5717,6.44l-3.8385,0.72c-0.6447,-2.81 -2.2565,-4.08 -4.479,-3.88c-2.3421,0.22 -3.9776,2.34 -3.6426,5.98c0.335,3.63 2.3321,5.42 4.6741,5.21c2.2226,-0.21 3.5742,-1.76 3.6943,-4.63h3.9047c-0.0614,4.56 -2.9953,7.5 -7.2492,7.9zM107.966,248.69c-3.513,0.32 -6.419,-1.92 -6.779,-5.81c-0.357,-3.88 2.089,-6.63 5.602,-6.96c3.537,-0.32 6.421,1.94 6.778,5.81c0.359,3.9 -2.064,6.63 -5.601,6.96zM107.69,245.7c1.554,-0.15 2.562,-1.49 2.364,-3.64c-0.196,-2.13 -1.434,-3.27 -2.988,-3.13c-1.553,0.15 -2.562,1.49 -2.366,3.62c0.199,2.15 1.437,3.29 2.99,3.15zM116.188,247.61l-1.118,-12.11l3.442,-0.32l0.178,1.94c0.489,-1.5 1.859,-2.32 3.365,-2.46c1.673,-0.15 3.208,0.55 4.014,1.97c0.575,-1.6 2.128,-2.54 3.753,-2.69c2.342,-0.21 4.358,1.26 4.605,3.94l0.736,7.98l-3.513,0.33l-0.654,-7.1c-0.144,-1.55 -0.91,-2.28 -2.224,-2.16c-1.243,0.12 -2.148,1.02 -1.976,2.88l0.624,6.77l-3.513,0.32l-0.652,-7.07c-0.144,-1.56 -0.912,-2.3 -2.226,-2.18c-1.243,0.11 -2.172,1.02 -2,2.88l0.624,6.76zM137.823,245.62l-1.118,-12.12l3.441,-0.32l0.179,1.94c0.489,-1.49 1.859,-2.32 3.365,-2.46c1.673,-0.15 3.208,0.55 4.013,1.97c0.576,-1.59 2.129,-2.53 3.754,-2.68c2.342,-0.22 4.358,1.26 4.605,3.94l0.736,7.98l-3.513,0.32l-0.655,-7.1c-0.143,-1.55 -0.909,-2.27 -2.223,-2.15c-1.243,0.11 -2.148,1.01 -1.976,2.88l0.624,6.76l-3.513,0.33l-0.653,-7.08c-0.143,-1.55 -0.911,-2.3 -2.225,-2.18c-1.243,0.12 -2.172,1.02 -2,2.89l0.624,6.76zM164.791,243.44c-3.68,0.34 -6.277,-1.95 -6.634,-5.82c-0.349,-3.78 2.016,-6.62 5.362,-6.93c3.298,-0.3 5.993,1.74 6.325,5.35c0.056,0.59 0.078,1.1 0.053,1.61l-8.317,0.76c0.358,1.54 1.563,2.32 2.973,2.19c1.267,-0.12 2.074,-0.77 2.425,-1.94l2.854,0.9c-0.74,2.43 -2.579,3.66 -5.041,3.88zM161.342,236.1l5.282,-0.49c-0.15,-1.36 -1.229,-2.34 -2.854,-2.19c-1.362,0.12 -2.378,1.13 -2.428,2.68zM172.55,242.42l-1.117,-12.12l3.298,-0.31l0.13,1.41c0.481,-1.05 1.532,-1.68 2.7,-1.81c2.292,-0.24 3.835,1.33 4.022,3.36c0.157,1.7 -0.632,3.34 -2.126,4.13l-1.987,-2.2c0.459,-0.26 0.777,-0.73 0.725,-1.3c-0.067,-0.72 -0.665,-1.19 -1.453,-1.12c-0.932,0.09 -1.533,0.89 -1.401,2.32l0.674,7.32zM189.551,241.16c-3.585,0.33 -6.191,-2.06 -6.539,-5.83c-0.346,-3.75 1.993,-6.62 5.386,-6.93c3.131,-0.29 5.808,1.29 6.271,4.74l-3.389,0.63c-0.246,-1.62 -1.218,-2.49 -2.604,-2.36c-1.53,0.14 -2.345,1.49 -2.151,3.59c0.194,2.11 1.245,3.31 2.799,3.17c1.433,-0.13 2.158,-1.16 2.127,-2.8l3.447,-0.01c0.152,3.49 -2.192,5.51 -5.347,5.8zM202.763,239.94c-3.68,0.34 -6.278,-1.95 -6.635,-5.82c-0.348,-3.78 2.017,-6.62 5.362,-6.93c3.298,-0.31 5.993,1.74 6.326,5.34c0.055,0.6 0.078,1.11 0.052,1.61l-8.316,0.77c0.358,1.54 1.563,2.32 2.973,2.19c1.266,-0.12 2.074,-0.77 2.424,-1.94l2.854,0.89c-0.74,2.43 -2.578,3.66 -5.04,3.89zM199.314,232.6l5.281,-0.49c-0.149,-1.36 -1.228,-2.35 -2.853,-2.2c-1.363,0.13 -2.378,1.14 -2.428,2.69zM220.478,230.74c-0.613,-0.2 -1.131,-0.32 -1.552,-0.36c-0.407,-0.06 -0.794,-0.07 -1.161,-0.04c-0.446,0.04 -0.903,0.22 -1.372,0.54c-0.453,0.31 -0.86,0.69 -1.222,1.12l-0.249,-2.7c0.36,-0.45 0.778,-0.8 1.252,-1.06c0.474,-0.26 1.013,-0.43 1.618,-0.48c0.463,-0.04 0.929,-0.04 1.4,0.01c0.485,0.04 1.117,0.18 1.895,0.43c0.613,0.2 1.131,0.33 1.554,0.39c0.422,0.04 0.808,0.04 1.158,0.01c0.462,-0.04 0.92,-0.22 1.373,-0.53c0.453,-0.32 0.86,-0.69 1.222,-1.13l0.249,2.7c-0.36,0.45 -0.777,0.81 -1.25,1.08c-0.475,0.25 -1.015,0.41 -1.621,0.46c-0.462,0.05 -0.936,0.04 -1.423,-0.01c-0.471,-0.05 -1.095,-0.2 -1.871,-0.43zM245.437,235.69l-3.702,-5.9l-2.868,0.27l0.571,6.19l-3.656,0.33l-1.565,-16.96l7.122,-0.66c3.895,-0.36 6.177,1.65 6.455,4.66c0.189,2.05 -0.721,3.94 -2.653,4.94l4.406,6.75zM238.59,227.05l3.059,-0.29c1.673,-0.15 2.567,-1.17 2.434,-2.61c-0.125,-1.36 -1.217,-2.22 -2.89,-2.07l-3.035,0.28zM256.395,235c-3.681,0.33 -6.278,-1.96 -6.635,-5.83c-0.348,-3.77 2.016,-6.62 5.362,-6.93c3.298,-0.3 5.993,1.74 6.326,5.35c0.055,0.6 0.077,1.1 0.052,1.61l-8.317,0.77c0.359,1.53 1.563,2.31 2.973,2.18c1.267,-0.12 2.074,-0.77 2.425,-1.94l2.854,0.9c-0.74,2.43 -2.579,3.66 -5.04,3.89zM252.946,227.65l5.281,-0.49c-0.149,-1.36 -1.228,-2.34 -2.854,-2.19c-1.362,0.12 -2.377,1.13 -2.427,2.68zM266.738,233.73l-5.133,-11.75l3.585,-0.33l3.538,8.57l1.935,-9.07l3.346,-0.31l-2.922,12.49zM276.686,232.81l-1.117,-12.12l3.465,-0.32l1.118,12.12zM277.183,219.12c-1.147,0.11 -2.106,-0.62 -2.21,-1.75c-0.105,-1.14 0.704,-2.04 1.851,-2.14c1.147,-0.11 2.106,0.62 2.212,1.77c0.104,1.12 -0.706,2.02 -1.853,2.12zM288.298,232.05c-3.68,0.34 -6.277,-1.95 -6.634,-5.82c-0.349,-3.78 2.016,-6.62 5.362,-6.93c3.298,-0.3 5.993,1.74 6.326,5.35c0.055,0.59 0.077,1.1 0.052,1.61l-8.317,0.76c0.358,1.54 1.563,2.32 2.973,2.19c1.267,-0.12 2.074,-0.77 2.425,-1.94l2.854,0.9c-0.74,2.43 -2.579,3.66 -5.041,3.88zM284.849,224.71l5.282,-0.49c-0.15,-1.36 -1.229,-2.35 -2.854,-2.2c-1.362,0.13 -2.378,1.14 -2.428,2.69zM297.995,230.85l-4.344,-11.82l3.417,-0.32l2.849,8.42l1.31,-8.8l3.441,-0.32l2.903,8.48l1.208,-8.86l3.274,-0.3l-2.085,12.41l-4.039,0.37l-2.672,-7.8l-1.2,8.16zM319.54,229.22c-3.322,0.31 -5.457,-0.89 -5.702,-3.55c-0.02,-0.21 -0.005,-0.58 0.025,-0.77l3.14,-0.19c-0.028,0.22 -0.015,0.36 0.001,0.53c0.086,0.93 0.879,1.43 2.292,1.33c1.218,-0.12 1.92,-0.61 1.849,-1.38c-0.062,-0.67 -0.549,-0.98 -1.735,-1.04l-1.745,-0.11c-2.979,-0.16 -3.97,-1.49 -4.135,-3.28c-0.205,-2.22 1.455,-4.09 4.633,-4.38c3.226,-0.3 5.366,0.95 5.576,3.22c0.022,0.24 0.014,0.68 -0.038,0.9l-3.216,0.15c0.035,-0.15 0.043,-0.32 0.028,-0.49c-0.066,-0.71 -0.836,-1.22 -2.079,-1.11c-1.171,0.11 -1.77,0.67 -1.715,1.27c0.049,0.53 0.412,0.81 1.285,0.87l1.697,0.11c3.056,0.2 4.554,1.29 4.753,3.44c0.255,2.77 -1.783,4.19 -4.914,4.48zM342.608,219.48c-0.613,-0.2 -1.131,-0.33 -1.552,-0.37c-0.407,-0.06 -0.794,-0.07 -1.16,-0.03c-0.447,0.04 -0.904,0.22 -1.373,0.53c-0.453,0.32 -0.86,0.69 -1.222,1.13l-0.249,-2.7c0.36,-0.45 0.778,-0.81 1.252,-1.06c0.474,-0.27 1.013,-0.43 1.619,-0.49c0.462,-0.04 0.928,-0.03 1.399,0.02c0.485,0.04 1.117,0.18 1.895,0.43c0.613,0.2 1.131,0.33 1.554,0.38c0.422,0.05 0.808,0.05 1.158,0.02c0.463,-0.04 0.92,-0.22 1.373,-0.54c0.453,-0.31 0.86,-0.69 1.222,-1.12l0.249,2.7c-0.36,0.45 -0.777,0.81 -1.25,1.08c-0.475,0.25 -1.015,0.4 -1.621,0.46c-0.462,0.04 -0.936,0.04 -1.423,-0.01c-0.471,-0.06 -1.094,-0.2 -1.871,-0.43zM365.141,225.04c-4.852,0.45 -8.417,-2.94 -8.911,-8.29c-0.494,-5.35 2.519,-9.01 7.275,-9.44c4.254,-0.4 7.68,1.99 8.572,6.44l-3.839,0.71c-0.644,-2.81 -2.256,-4.08 -4.479,-3.88c-2.342,0.22 -3.977,2.35 -3.642,5.98c0.335,3.63 2.332,5.42 4.674,5.21c2.222,-0.21 3.574,-1.75 3.694,-4.63h3.905c-0.062,4.56 -2.995,7.51 -7.249,7.9zM380.629,223.54c-3.513,0.32 -6.419,-1.92 -6.779,-5.81c-0.357,-3.87 2.089,-6.63 5.602,-6.95c3.537,-0.33 6.421,1.93 6.778,5.81c0.359,3.89 -2.064,6.62 -5.601,6.95zM380.353,220.55c1.554,-0.14 2.562,-1.49 2.364,-3.64c-0.196,-2.13 -1.434,-3.27 -2.988,-3.12c-1.553,0.14 -2.562,1.49 -2.365,3.61c0.198,2.15 1.436,3.29 2.989,3.15zM388.851,222.47l-1.118,-12.12l3.442,-0.32l0.178,1.94c0.489,-1.49 1.859,-2.32 3.365,-2.46c1.673,-0.15 3.208,0.55 4.014,1.97c0.576,-1.6 2.128,-2.53 3.753,-2.68c2.342,-0.22 4.358,1.26 4.605,3.93l0.736,7.99l-3.513,0.32l-0.654,-7.1c-0.144,-1.55 -0.909,-2.28 -2.224,-2.16c-1.243,0.12 -2.147,1.02 -1.976,2.89l0.624,6.76l-3.513,0.32l-0.652,-7.07c-0.144,-1.55 -0.912,-2.3 -2.226,-2.18c-1.243,0.11 -2.172,1.02 -2,2.88l0.624,6.77zM410.486,220.47l-1.118,-12.12l3.442,-0.31l0.178,1.93c0.489,-1.49 1.859,-2.31 3.365,-2.45c1.673,-0.16 3.208,0.54 4.013,1.96c0.576,-1.59 2.129,-2.53 3.754,-2.68c2.342,-0.22 4.358,1.26 4.605,3.94l0.736,7.98l-3.513,0.32l-0.655,-7.09c-0.143,-1.56 -0.909,-2.28 -2.223,-2.16c-1.243,0.11 -2.148,1.02 -1.976,2.88l0.624,6.76l-3.513,0.33l-0.653,-7.08c-0.143,-1.55 -0.911,-2.3 -2.225,-2.18c-1.243,0.12 -2.172,1.02 -2,2.89l0.624,6.76zM436.249,218.29c-2.366,0.22 -4.406,-1.26 -4.651,-3.91l-0.739,-8.01l3.514,-0.32l0.652,7.07c0.143,1.56 0.935,2.3 2.297,2.18c1.267,-0.12 2.146,-1.05 1.974,-2.91l-0.622,-6.74l3.466,-0.32l1.117,12.12l-3.441,0.32l-0.172,-1.87c-0.518,1.45 -1.914,2.25 -3.395,2.39zM446.077,217.19l-1.118,-12.12l3.442,-0.32l0.174,1.89c0.537,-1.49 1.935,-2.27 3.441,-2.41c2.366,-0.22 4.427,1.23 4.672,3.88l0.741,8.03l-3.514,0.32l-0.654,-7.09c-0.143,-1.56 -0.957,-2.28 -2.319,-2.15c-1.267,0.12 -2.196,1.02 -2.024,2.88l0.624,6.77zM460.08,215.9l-1.118,-12.12l3.466,-0.32l1.117,12.12zM460.577,202.21c-1.147,0.1 -2.106,-0.63 -2.21,-1.75c-0.106,-1.15 0.703,-2.04 1.851,-2.15c1.147,-0.1 2.106,0.63 2.212,1.78c0.103,1.12 -0.706,2.01 -1.853,2.12zM471.764,215.13c-2.868,0.27 -4.693,-1.23 -4.958,-4.1l-0.471,-5.11l-1.841,0.17l-0.257,-2.8l1.84,-0.17l-0.315,-3.41l3.441,-0.32l0.315,3.42l4.828,-0.45l0.258,2.8l-4.828,0.44l0.474,5.14c0.086,0.93 0.615,1.44 1.379,1.37c0.67,-0.06 1.084,-0.54 1.024,-1.18c-0.026,-0.29 -0.148,-0.57 -0.34,-0.81l2.397,-1.45c0.592,0.66 0.889,1.53 0.962,2.32c0.209,2.27 -1.375,3.91 -3.908,4.14zM480.934,218.55c-2.605,0.24 -4.263,-1.27 -4.439,-3.18c-0.057,-0.62 0.031,-1.23 0.222,-1.78l2.973,0.62c-0.032,0.17 -0.065,0.34 -0.045,0.56c0.049,0.52 0.418,0.87 1.04,0.82c0.573,-0.06 0.873,-0.47 1.033,-1.09l0.201,-0.69l-5.891,-11.6l3.824,-0.36l3.571,7.63l2.045,-8.14l3.346,-0.31l-3.772,13.72c-0.592,2.2 -1.718,3.58 -4.108,3.8zM507.051,204.31c-0.613,-0.2 -1.131,-0.32 -1.552,-0.36c-0.408,-0.06 -0.794,-0.07 -1.161,-0.04c-0.446,0.04 -0.903,0.22 -1.372,0.54c-0.453,0.31 -0.861,0.69 -1.222,1.12l-0.249,-2.7c0.36,-0.45 0.777,-0.8 1.252,-1.06c0.473,-0.26 1.013,-0.43 1.618,-0.48c0.462,-0.05 0.929,-0.04 1.4,0.01c0.485,0.04 1.117,0.18 1.895,0.43c0.613,0.2 1.131,0.33 1.554,0.39c0.422,0.04 0.808,0.04 1.158,0.01c0.462,-0.04 0.92,-0.22 1.373,-0.53c0.453,-0.32 0.86,-0.69 1.222,-1.13l0.249,2.7c-0.36,0.45 -0.777,0.81 -1.251,1.08c-0.474,0.25 -1.014,0.41 -1.62,0.46c-0.462,0.05 -0.936,0.04 -1.423,-0.01c-0.471,-0.05 -1.095,-0.2 -1.871,-0.43zM529.583,209.87c-4.851,0.45 -8.417,-2.93 -8.911,-8.29c-0.493,-5.35 2.52,-9.002 7.276,-9.441c4.254,-0.392 7.679,1.991 8.572,6.441l-3.839,0.71c-0.645,-2.8 -2.256,-4.08 -4.479,-3.87c-2.342,0.21 -3.978,2.34 -3.643,5.97c0.336,3.64 2.333,5.43 4.675,5.21c2.222,-0.2 3.574,-1.75 3.694,-4.63h3.905c-0.062,4.56 -2.996,7.51 -7.25,7.9zM545.071,208.37c-3.513,0.32 -6.419,-1.91 -6.778,-5.81c-0.357,-3.87 2.088,-6.63 5.601,-6.95c3.537,-0.33 6.422,1.94 6.779,5.81c0.359,3.89 -2.065,6.62 -5.602,6.95zM544.796,205.38c1.553,-0.14 2.562,-1.49 2.364,-3.64c-0.197,-2.12 -1.434,-3.26 -2.988,-3.12c-1.553,0.14 -2.562,1.49 -2.366,3.62c0.199,2.15 1.437,3.29 2.99,3.14zM553.294,207.3l-1.118,-12.12l3.441,-0.31l0.179,1.93c0.489,-1.49 1.859,-2.32 3.365,-2.45c1.673,-0.16 3.208,0.54 4.013,1.96c0.576,-1.59 2.129,-2.53 3.754,-2.68c2.342,-0.22 4.358,1.26 4.605,3.94l0.736,7.98l-3.513,0.32l-0.655,-7.09c-0.143,-1.56 -0.909,-2.28 -2.223,-2.16c-1.243,0.11 -2.148,1.02 -1.976,2.88l0.624,6.76l-3.513,0.33l-0.653,-7.08c-0.143,-1.55 -0.911,-2.3 -2.225,-2.18c-1.243,0.12 -2.172,1.02 -2,2.89l0.624,6.76zM574.928,205.3l-1.117,-12.11l3.441,-0.32l0.179,1.94c0.489,-1.5 1.859,-2.321 3.364,-2.46c1.673,-0.154 3.208,0.548 4.014,1.97c0.576,-1.598 2.128,-2.536 3.753,-2.686c2.343,-0.216 4.359,1.261 4.606,3.936l0.736,7.98l-3.513,0.33l-0.655,-7.1c-0.143,-1.55 -0.909,-2.28 -2.223,-2.16c-1.243,0.12 -2.148,1.02 -1.976,2.88l0.624,6.77l-3.513,0.32l-0.653,-7.07c-0.143,-1.56 -0.911,-2.3 -2.226,-2.18c-1.242,0.11 -2.171,1.02 -1.999,2.88l0.624,6.76zM601.897,203.13c-3.68,0.34 -6.278,-1.95 -6.635,-5.82c-0.348,-3.78 2.017,-6.625 5.363,-6.933c3.298,-0.304 5.992,1.737 6.325,5.343c0.055,0.6 0.078,1.1 0.052,1.61l-8.316,0.77c0.358,1.53 1.563,2.31 2.973,2.18c1.266,-0.11 2.074,-0.77 2.424,-1.93l2.854,0.89c-0.739,2.43 -2.578,3.66 -5.04,3.89zM598.448,195.78l5.282,-0.48c-0.15,-1.36 -1.229,-2.349 -2.854,-2.2c-1.362,0.13 -2.378,1.14 -2.428,2.68zM609.656,202.1l-1.118,-12.116l3.298,-0.304l0.13,1.41c0.481,-1.056 1.532,-1.684 2.701,-1.816c2.292,-0.235 3.835,1.334 4.022,3.365c0.157,1.701 -0.632,3.341 -2.126,4.121l-1.987,-2.2c0.458,-0.26 0.777,-0.72 0.724,-1.29c-0.066,-0.722 -0.664,-1.197 -1.453,-1.124c-0.932,0.086 -1.532,0.884 -1.4,2.324l0.674,7.31zM626.657,200.85c-3.585,0.33 -6.191,-2.06 -6.539,-5.84c-0.346,-3.748 1.992,-6.615 5.386,-6.928c3.131,-0.289 5.808,1.296 6.271,4.748l-3.389,0.63c-0.246,-1.62 -1.218,-2.494 -2.604,-2.367c-1.53,0.141 -2.345,1.494 -2.151,3.597c0.194,2.1 1.245,3.31 2.798,3.16c1.434,-0.13 2.159,-1.16 2.128,-2.79l3.446,-0.01c0.153,3.48 -2.191,5.51 -5.346,5.8zM639.869,199.63c-3.681,0.34 -6.278,-1.95 -6.635,-5.83c-0.348,-3.772 2.016,-6.617 5.362,-6.925c3.298,-0.304 5.993,1.737 6.326,5.345c0.055,0.598 0.077,1.1 0.052,1.61l-8.317,0.77c0.359,1.53 1.563,2.31 2.973,2.18c1.267,-0.12 2.075,-0.77 2.425,-1.93l2.854,0.89c-0.74,2.43 -2.579,3.66 -5.04,3.89zM636.42,192.281l5.281,-0.487c-0.149,-1.36 -1.228,-2.345 -2.853,-2.195c-1.363,0.126 -2.378,1.135 -2.428,2.682zM657.584,190.426c-0.614,-0.201 -1.131,-0.322 -1.552,-0.363c-0.408,-0.059 -0.794,-0.071 -1.161,-0.038c-0.446,0.041 -0.903,0.22 -1.372,0.537c-0.453,0.315 -0.861,0.69 -1.222,1.125l-0.249,-2.701c0.36,-0.451 0.777,-0.803 1.252,-1.055c0.473,-0.269 1.013,-0.431 1.618,-0.487c0.462,-0.043 0.929,-0.038 1.4,0.015c0.485,0.036 1.117,0.179 1.895,0.428c0.613,0.201 1.131,0.33 1.554,0.387c0.422,0.042 0.808,0.046 1.158,0.014c0.462,-0.043 0.92,-0.222 1.373,-0.537c0.453,-0.314 0.86,-0.689 1.222,-1.124l0.249,2.7c-0.36,0.451 -0.777,0.811 -1.251,1.079c-0.474,0.253 -1.014,0.407 -1.62,0.463c-0.462,0.043 -0.936,0.038 -1.423,-0.013c-0.471,-0.053 -1.095,-0.196 -1.871,-0.43zM688.167,194.86l-3.701,-5.901l-2.868,0.264l0.571,6.187l-3.657,0.34l-1.565,-16.968l7.122,-0.657c3.895,-0.359 6.177,1.648 6.455,4.659c0.19,2.056 -0.72,3.947 -2.653,4.945l4.407,6.751zM681.32,186.212l3.059,-0.282c1.673,-0.154 2.567,-1.177 2.435,-2.611c-0.126,-1.362 -1.218,-2.225 -2.891,-2.071l-3.035,0.28zM699.125,194.16c-3.68,0.34 -6.278,-1.949 -6.635,-5.821c-0.348,-3.776 2.017,-6.621 5.363,-6.93c3.298,-0.304 5.992,1.737 6.325,5.346c0.055,0.598 0.078,1.102 0.052,1.61l-8.316,0.767c0.358,1.534 1.563,2.314 2.973,2.184c1.266,-0.116 2.074,-0.769 2.424,-1.934l2.854,0.893c-0.739,2.43 -2.578,3.665 -5.04,3.885zM695.676,186.816l5.282,-0.487c-0.15,-1.36 -1.229,-2.345 -2.854,-2.195c-1.362,0.126 -2.378,1.135 -2.428,2.682zM709.468,192.895l-5.132,-11.746l3.585,-0.331l3.537,8.568l1.935,-9.072l3.346,-0.309l-2.921,12.489zM719.417,191.978l-1.118,-12.117l3.465,-0.319l1.118,12.116zM719.914,178.29c-1.147,0.106 -2.107,-0.625 -2.21,-1.748c-0.106,-1.147 0.703,-2.041 1.85,-2.147c1.148,-0.106 2.107,0.625 2.213,1.772c0.103,1.123 -0.706,2.017 -1.853,2.123zM731.029,191.22c-3.681,0.339 -6.278,-1.952 -6.635,-5.823c-0.348,-3.776 2.016,-6.621 5.362,-6.93c3.298,-0.304 5.993,1.737 6.326,5.346c0.055,0.597 0.077,1.101 0.052,1.61l-8.317,0.767c0.359,1.533 1.563,2.314 2.973,2.184c1.267,-0.117 2.075,-0.77 2.425,-1.935l2.854,0.894c-0.74,2.43 -2.579,3.66 -5.04,3.887zM727.58,183.874l5.281,-0.487c-0.149,-1.36 -1.228,-2.345 -2.854,-2.196c-1.362,0.126 -2.377,1.136 -2.427,2.683zM740.725,190.012l-4.344,-11.819l3.418,-0.315l2.848,8.414l1.31,-8.797l3.441,-0.318l2.904,8.482l1.207,-8.861l3.274,-0.302l-2.085,12.412l-4.039,0.373l-2.672,-7.804l-1.199,8.161zM762.271,188.387c-3.322,0.306 -5.458,-0.895 -5.702,-3.548c-0.02,-0.215 -0.005,-0.577 0.025,-0.773l3.139,-0.193c-0.028,0.219 -0.014,0.363 0.001,0.53c0.086,0.932 0.88,1.437 2.292,1.331c1.219,-0.112 1.92,-0.611 1.849,-1.376c-0.061,-0.669 -0.548,-0.985 -1.735,-1.045l-1.745,-0.104c-2.979,-0.159 -3.969,-1.49 -4.135,-3.282c-0.205,-2.223 1.455,-4.087 4.634,-4.38c3.226,-0.298 5.366,0.951 5.575,3.222c0.022,0.239 0.014,0.673 -0.038,0.895l-3.216,0.152c0.035,-0.148 0.043,-0.317 0.028,-0.485c-0.066,-0.717 -0.836,-1.224 -2.079,-1.11c-1.171,0.108 -1.77,0.67 -1.715,1.267c0.049,0.526 0.412,0.806 1.286,0.87l1.697,0.109c3.055,0.2 4.554,1.291 4.752,3.442c0.256,2.772 -1.783,4.189 -4.913,4.478zM785.338,178.643c-0.613,-0.2 -1.13,-0.321 -1.552,-0.363c-0.407,-0.059 -0.794,-0.071 -1.16,-0.038c-0.446,0.042 -0.904,0.22 -1.373,0.537c-0.453,0.315 -0.86,0.69 -1.221,1.125l-0.25,-2.701c0.361,-0.451 0.778,-0.803 1.253,-1.055c0.473,-0.269 1.013,-0.431 1.618,-0.487c0.462,-0.043 0.928,-0.037 1.399,0.016c0.486,0.035 1.117,0.178 1.896,0.427c0.613,0.201 1.131,0.33 1.554,0.387c0.421,0.042 0.807,0.046 1.158,0.014c0.462,-0.043 0.919,-0.221 1.372,-0.536c0.453,-0.315 0.861,-0.69 1.222,-1.125l0.249,2.7c-0.36,0.451 -0.777,0.811 -1.25,1.08c-0.475,0.252 -1.015,0.407 -1.62,0.462c-0.462,0.043 -0.937,0.039 -1.423,-0.013c-0.471,-0.053 -1.095,-0.196 -1.872,-0.43zM807.871,184.205c-4.851,0.448 -8.417,-2.935 -8.911,-8.288c-0.494,-5.354 2.52,-9.006 7.276,-9.445c4.253,-0.392 7.679,1.992 8.571,6.44l-3.838,0.716c-0.645,-2.809 -2.257,-4.082 -4.479,-3.877c-2.342,0.216 -3.978,2.343 -3.643,5.976c0.335,3.632 2.332,5.424 4.674,5.208c2.223,-0.205 3.575,-1.751 3.695,-4.63l3.904,0.001c-0.061,4.561 -2.995,7.507 -7.249,7.899zM823.359,182.704c-3.513,0.324 -6.419,-1.914 -6.778,-5.81c-0.357,-3.871 2.088,-6.627 5.601,-6.951c3.537,-0.327 6.421,1.938 6.778,5.81c0.36,3.895 -2.064,6.625 -5.601,6.951zM823.084,179.717c1.553,-0.143 2.562,-1.49 2.363,-3.64c-0.196,-2.127 -1.434,-3.266 -2.987,-3.123c-1.554,0.143 -2.562,1.489 -2.366,3.616c0.198,2.151 1.436,3.29 2.99,3.147zM831.581,181.633l-1.117,-12.117l3.441,-0.317l0.179,1.936c0.489,-1.492 1.859,-2.317 3.364,-2.456c1.673,-0.154 3.208,0.548 4.014,1.968c0.576,-1.596 2.128,-2.534 3.753,-2.684c2.342,-0.216 4.359,1.261 4.606,3.938l0.736,7.982l-3.513,0.324l-0.655,-7.098c-0.143,-1.554 -0.909,-2.278 -2.224,-2.157c-1.242,0.114 -2.147,1.017 -1.975,2.882l0.624,6.763l-3.514,0.324l-0.652,-7.074c-0.143,-1.554 -0.911,-2.302 -2.226,-2.181c-1.242,0.115 -2.171,1.02 -1.999,2.884l0.624,6.763zM853.216,179.637l-1.118,-12.116l3.442,-0.318l0.178,1.936c0.49,-1.491 1.86,-2.316 3.365,-2.455c1.673,-0.154 3.208,0.548 4.014,1.968c0.576,-1.596 2.128,-2.535 3.753,-2.685c2.342,-0.216 4.358,1.262 4.605,3.938l0.736,7.982l-3.513,0.324l-0.654,-7.098c-0.144,-1.553 -0.909,-2.278 -2.224,-2.156c-1.242,0.114 -2.147,1.017 -1.975,2.881l0.623,6.763l-3.513,0.324l-0.652,-7.074c-0.143,-1.553 -0.911,-2.302 -2.226,-2.18c-1.243,0.114 -2.171,1.019 -2,2.883l0.624,6.764zM878.979,177.454c-2.366,0.218 -4.406,-1.257 -4.651,-3.909l-0.738,-8.006l3.513,-0.324l0.652,7.074c0.144,1.553 0.936,2.299 2.298,2.174c1.266,-0.117 2.145,-1.042 1.973,-2.906l-0.621,-6.739l3.465,-0.32l1.117,12.117l-3.441,0.317l-0.172,-1.864c-0.517,1.446 -1.913,2.249 -3.395,2.386zM888.807,176.355l-1.117,-12.117l3.441,-0.317l0.174,1.888c0.537,-1.496 1.935,-2.276 3.441,-2.414c2.366,-0.219 4.428,1.23 4.672,3.883l0.741,8.03l-3.513,0.324l-0.655,-7.098c-0.143,-1.553 -0.957,-2.274 -2.319,-2.148c-1.266,0.117 -2.195,1.022 -2.023,2.886l0.623,6.763zM902.81,175.063l-1.117,-12.116l3.465,-0.32l1.117,12.117zM903.307,161.376c-1.147,0.106 -2.106,-0.625 -2.21,-1.749c-0.105,-1.147 0.704,-2.041 1.851,-2.147c1.147,-0.105 2.106,0.626 2.212,1.773c0.104,1.123 -0.706,2.017 -1.853,2.123zM914.494,174.299c-2.868,0.265 -4.693,-1.23 -4.957,-4.098l-0.472,-5.114l-1.84,0.169l-0.258,-2.796l1.84,-0.169l-0.315,-3.418l3.441,-0.317l0.316,3.417l4.827,-0.445l0.258,2.796l-4.828,0.445l0.474,5.138c0.086,0.933 0.615,1.438 1.38,1.368c0.669,-0.062 1.083,-0.534 1.024,-1.179c-0.027,-0.287 -0.149,-0.565 -0.34,-0.813l2.397,-1.45c0.592,0.669 0.888,1.533 0.961,2.322c0.209,2.27 -1.375,3.91 -3.908,4.144zM923.664,177.719c-2.604,0.241 -4.262,-1.27 -4.438,-3.181c-0.058,-0.622 0.03,-1.233 0.221,-1.78l2.973,0.617c-0.032,0.172 -0.064,0.344 -0.045,0.559c0.049,0.525 0.419,0.877 1.04,0.82c0.574,-0.053 0.873,-0.466 1.033,-1.084l0.201,-0.693l-5.891,-11.604l3.824,-0.353l3.572,7.624l2.044,-8.142l3.346,-0.308l-3.771,13.724c-0.593,2.2 -1.719,3.581 -4.109,3.801zM949.781,163.477c-0.613,-0.201 -1.13,-0.322 -1.552,-0.363c-0.407,-0.059 -0.794,-0.072 -1.16,-0.038c-0.446,0.041 -0.904,0.22 -1.373,0.536c-0.453,0.315 -0.86,0.69 -1.222,1.125l-0.249,-2.7c0.36,-0.451 0.778,-0.803 1.253,-1.056c0.473,-0.268 1.012,-0.431 1.618,-0.486c0.462,-0.043 0.928,-0.038 1.399,0.015c0.485,0.036 1.117,0.178 1.895,0.428c0.613,0.2 1.131,0.329 1.554,0.387c0.422,0.041 0.808,0.046 1.159,0.013c0.462,-0.042 0.919,-0.221 1.372,-0.536c0.453,-0.315 0.86,-0.69 1.222,-1.125l0.249,2.701c-0.36,0.451 -0.777,0.81 -1.25,1.079c-0.475,0.253 -1.015,0.407 -1.62,0.463c-0.463,0.042 -0.937,0.038 -1.424,-0.014c-0.471,-0.052 -1.094,-0.196 -1.871,-0.429zM972.314,169.039c-4.852,0.447 -8.417,-2.936 -8.911,-8.289c-0.494,-5.353 2.519,-9.005 7.275,-9.444c4.254,-0.392 7.68,1.991 8.572,6.44l-3.839,0.715c-0.644,-2.808 -2.256,-4.082 -4.479,-3.877c-2.342,0.216 -3.977,2.344 -3.642,5.976c0.335,3.633 2.332,5.425 4.674,5.209c2.223,-0.205 3.574,-1.752 3.694,-4.631l3.905,0.001c-0.061,4.561 -2.995,7.507 -7.249,7.9zM987.802,167.538c-3.513,0.324 -6.419,-1.915 -6.778,-5.81c-0.358,-3.872 2.088,-6.628 5.601,-6.952c3.537,-0.326 6.421,1.939 6.778,5.81c0.359,3.896 -2.064,6.626 -5.601,6.952zM987.526,164.551c1.554,-0.144 2.562,-1.49 2.364,-3.641c-0.196,-2.127 -1.434,-3.266 -2.987,-3.123c-1.554,0.144 -2.563,1.49 -2.366,3.617c0.198,2.151 1.436,3.29 2.989,3.147zM996.024,166.466l-1.118,-12.116l3.442,-0.318l0.178,1.936c0.489,-1.491 1.864,-2.317 3.364,-2.455c1.67,-0.155 3.21,0.547 4.01,1.967c0.58,-1.595 2.13,-2.534 3.76,-2.684c2.34,-0.216 4.36,1.261 4.6,3.938l0.74,7.982l-3.51,0.324l-0.66,-7.098c-0.14,-1.553 -0.91,-2.278 -2.22,-2.157c-1.24,0.115 -2.15,1.018 -1.98,2.882l0.63,6.763l-3.52,0.324l-0.65,-7.074c-0.14,-1.553 -0.91,-2.302 -2.22,-2.181c-1.248,0.115 -2.176,1.02 -2.005,2.884l0.624,6.764zM1017.66,164.471l-1.12,-12.117l3.44,-0.317l0.18,1.936c0.49,-1.492 1.86,-2.317 3.37,-2.456c1.67,-0.154 3.2,0.548 4.01,1.968c0.58,-1.596 2.13,-2.534 3.75,-2.684c2.34,-0.216 4.36,1.261 4.61,3.938l0.73,7.982l-3.51,0.324l-0.65,-7.098c-0.15,-1.554 -0.91,-2.278 -2.23,-2.157c-1.24,0.115 -2.14,1.018 -1.97,2.882l0.62,6.763l-3.51,0.324l-0.65,-7.074c-0.15,-1.553 -0.92,-2.302 -2.23,-2.181c-1.24,0.115 -2.17,1.02 -2,2.884l0.62,6.763zM1044.63,162.297c-3.68,0.339 -6.28,-1.952 -6.64,-5.823c-0.35,-3.776 2.02,-6.622 5.36,-6.93c3.3,-0.304 6,1.737 6.33,5.345c0.06,0.598 0.08,1.102 0.05,1.61l-8.31,0.768c0.35,1.533 1.56,2.314 2.97,2.184c1.27,-0.117 2.07,-0.77 2.42,-1.935l2.86,0.893c-0.74,2.431 -2.58,3.661 -5.04,3.888zM1041.18,154.951l5.28,-0.488c-0.15,-1.36 -1.23,-2.345 -2.85,-2.195c-1.37,0.126 -2.38,1.135 -2.43,2.683zM1052.39,161.268l-1.12,-12.117l3.3,-0.304l0.13,1.41c0.48,-1.056 1.53,-1.684 2.7,-1.816c2.29,-0.235 3.83,1.334 4.02,3.365c0.16,1.697 -0.63,3.336 -2.13,4.125l-1.98,-2.203c0.45,-0.259 0.77,-0.722 0.72,-1.296c-0.07,-0.717 -0.66,-1.192 -1.45,-1.119c-0.93,0.086 -1.54,0.888 -1.4,2.322l0.67,7.313zM1069.39,160.013c-3.59,0.331 -6.19,-2.056 -6.54,-5.832c-0.35,-3.752 1.99,-6.619 5.38,-6.932c3.14,-0.289 5.81,1.296 6.27,4.748l-3.38,0.626c-0.25,-1.616 -1.22,-2.49 -2.61,-2.363c-1.53,0.141 -2.34,1.494 -2.15,3.597c0.2,2.103 1.25,3.308 2.8,3.164c1.43,-0.132 2.16,-1.163 2.13,-2.799l3.44,-0.004c0.16,3.48 -2.19,5.504 -5.34,5.795zM1082.6,158.795c-3.68,0.339 -6.28,-1.952 -6.64,-5.824c-0.34,-3.776 2.02,-6.621 5.37,-6.929c3.29,-0.304 5.99,1.737 6.32,5.345c0.06,0.598 0.08,1.102 0.05,1.61l-8.31,0.767c0.36,1.534 1.56,2.315 2.97,2.185c1.27,-0.117 2.07,-0.77 2.43,-1.935l2.85,0.893c-0.74,2.431 -2.58,3.661 -5.04,3.888zM1079.15,151.448l5.28,-0.487c-0.15,-1.36 -1.23,-2.345 -2.85,-2.195c-1.36,0.126 -2.38,1.135 -2.43,2.682zM1100.31,149.593c-0.61,-0.201 -1.13,-0.322 -1.55,-0.363c-0.41,-0.059 -0.79,-0.071 -1.16,-0.038c-0.44,0.041 -0.9,0.22 -1.37,0.537c-0.45,0.315 -0.86,0.69 -1.22,1.125l-0.25,-2.701c0.36,-0.451 0.78,-0.803 1.25,-1.055c0.47,-0.269 1.01,-0.431 1.62,-0.487c0.46,-0.043 0.93,-0.038 1.4,0.015c0.48,0.036 1.12,0.179 1.89,0.428c0.62,0.201 1.13,0.33 1.56,0.387c0.42,0.042 0.81,0.046 1.16,0.014c0.46,-0.043 0.92,-0.222 1.37,-0.537c0.45,-0.314 0.86,-0.689 1.22,-1.124l0.25,2.7c-0.36,0.451 -0.78,0.811 -1.25,1.079c-0.48,0.253 -1.02,0.407 -1.62,0.463c-0.46,0.043 -0.94,0.038 -1.42,-0.013c-0.48,-0.053 -1.1,-0.196 -1.88,-0.43zM1130.9,154.027l-3.7,-5.901l-2.87,0.264l0.57,6.19l-3.66,0.337l-1.56,-16.968l7.12,-0.657c3.89,-0.359 6.18,1.648 6.45,4.659c0.19,2.056 -0.72,3.947 -2.65,4.945l4.41,6.752zM1124.05,145.379l3.06,-0.282c1.67,-0.154 2.57,-1.177 2.43,-2.611c-0.12,-1.362 -1.21,-2.225 -2.89,-2.071l-3.03,0.28zM1141.86,153.329c-3.68,0.34 -6.28,-1.951 -6.64,-5.823c-0.35,-3.776 2.02,-6.621 5.36,-6.93c3.3,-0.304 6,1.737 6.33,5.346c0.05,0.598 0.08,1.102 0.05,1.61l-8.32,0.767c0.36,1.534 1.57,2.314 2.98,2.184c1.26,-0.116 2.07,-0.769 2.42,-1.934l2.86,0.893c-0.74,2.43 -2.58,3.66 -5.04,3.887zM1138.41,145.983l5.28,-0.487c-0.15,-1.36 -1.23,-2.345 -2.86,-2.195c-1.36,0.126 -2.37,1.135 -2.42,2.682zM1152.2,152.062l-5.13,-11.746l3.58,-0.331l3.54,8.568l1.93,-9.072l3.35,-0.309l-2.92,12.489zM1162.15,151.145l-1.12,-12.117l3.46,-0.319l1.12,12.116zM1162.64,137.457c-1.14,0.106 -2.1,-0.625 -2.21,-1.748c-0.1,-1.147 0.71,-2.041 1.85,-2.147c1.15,-0.106 2.11,0.625 2.22,1.772c0.1,1.123 -0.71,2.017 -1.86,2.123zM1173.76,150.387c-3.68,0.339 -6.28,-1.952 -6.64,-5.823c-0.34,-3.776 2.02,-6.621 5.37,-6.93c3.29,-0.304 5.99,1.737 6.32,5.346c0.06,0.597 0.08,1.101 0.05,1.61l-8.31,0.767c0.36,1.533 1.56,2.314 2.97,2.184c1.27,-0.117 2.07,-0.77 2.43,-1.935l2.85,0.894c-0.74,2.43 -2.58,3.66 -5.04,3.887zM1170.31,143.041l5.28,-0.487c-0.15,-1.36 -1.23,-2.345 -2.85,-2.196c-1.36,0.126 -2.38,1.136 -2.43,2.683zM1183.46,149.179l-4.35,-11.819l3.42,-0.315l2.85,8.414l1.31,-8.797l3.44,-0.318l2.9,8.482l1.21,-8.861l3.27,-0.302l-2.08,12.412l-4.04,0.373l-2.67,-7.804l-1.2,8.161zM1205,147.554c-3.32,0.306 -5.46,-0.895 -5.7,-3.548c-0.02,-0.215 -0.01,-0.577 0.02,-0.773l3.14,-0.193c-0.02,0.219 -0.01,0.363 0,0.53c0.09,0.932 0.88,1.437 2.3,1.331c1.22,-0.112 1.92,-0.611 1.85,-1.376c-0.07,-0.669 -0.55,-0.985 -1.74,-1.045l-1.74,-0.104c-2.98,-0.159 -3.97,-1.49 -4.14,-3.282c-0.2,-2.223 1.46,-4.087 4.63,-4.38c3.23,-0.298 5.37,0.951 5.58,3.222c0.02,0.239 0.01,0.673 -0.04,0.895l-3.21,0.152c0.03,-0.148 0.04,-0.317 0.02,-0.485c-0.06,-0.717 -0.83,-1.224 -2.08,-1.11c-1.17,0.108 -1.77,0.67 -1.71,1.267c0.05,0.526 0.41,0.806 1.29,0.87l1.69,0.109c3.06,0.2 4.56,1.291 4.75,3.442c0.26,2.772 -1.78,4.189 -4.91,4.478zM1228.07,137.81c-0.61,-0.2 -1.13,-0.321 -1.55,-0.363c-0.41,-0.059 -0.8,-0.071 -1.16,-0.038c-0.45,0.042 -0.91,0.22 -1.38,0.537c-0.45,0.315 -0.86,0.69 -1.22,1.125l-0.25,-2.701c0.36,-0.451 0.78,-0.803 1.26,-1.055c0.47,-0.269 1.01,-0.431 1.61,-0.487c0.47,-0.043 0.93,-0.037 1.4,0.016c0.49,0.035 1.12,0.178 1.9,0.427c0.61,0.201 1.13,0.33 1.55,0.387c0.42,0.042 0.81,0.046 1.16,0.014c0.46,-0.043 0.92,-0.221 1.37,-0.536c0.46,-0.315 0.86,-0.69 1.22,-1.125l0.25,2.7c-0.36,0.451 -0.77,0.811 -1.25,1.08c-0.47,0.252 -1.01,0.407 -1.62,0.462c-0.46,0.043 -0.93,0.039 -1.42,-0.013c-0.47,-0.053 -1.09,-0.196 -1.87,-0.43zM1250.6,143.372c-4.85,0.448 -8.42,-2.935 -8.91,-8.288c-0.49,-5.354 2.52,-9.006 7.28,-9.445c4.25,-0.392 7.68,1.992 8.57,6.44l-3.84,0.716c-0.65,-2.809 -2.26,-4.082 -4.48,-3.877c-2.34,0.216 -3.98,2.343 -3.64,5.976c0.33,3.632 2.33,5.424 4.67,5.208c2.22,-0.205 3.58,-1.751 3.7,-4.63l3.9,0.001c-0.06,4.561 -2.99,7.507 -7.25,7.899zM1266.09,141.871c-3.51,0.324 -6.42,-1.914 -6.78,-5.81c-0.36,-3.871 2.09,-6.627 5.6,-6.951c3.54,-0.327 6.42,1.938 6.78,5.81c0.36,3.895 -2.06,6.625 -5.6,6.951zM1265.81,138.884c1.56,-0.143 2.57,-1.49 2.37,-3.64c-0.2,-2.127 -1.44,-3.266 -2.99,-3.123c-1.55,0.143 -2.56,1.489 -2.37,3.616c0.2,2.151 1.44,3.29 2.99,3.147zM1274.31,140.8l-1.12,-12.117l3.45,-0.317l0.17,1.936c0.49,-1.492 1.86,-2.317 3.37,-2.456c1.67,-0.154 3.21,0.548 4.01,1.968c0.58,-1.596 2.13,-2.534 3.76,-2.684c2.34,-0.216 4.35,1.261 4.6,3.938l0.74,7.982l-3.52,0.324l-0.65,-7.098c-0.14,-1.554 -0.91,-2.278 -2.22,-2.157c-1.25,0.114 -2.15,1.017 -1.98,2.882l0.62,6.763l-3.51,0.324l-0.65,-7.074c-0.14,-1.554 -0.91,-2.302 -2.23,-2.181c-1.24,0.115 -2.17,1.02 -2,2.884l0.63,6.763zM1295.95,138.804l-1.12,-12.116l3.44,-0.318l0.18,1.936c0.49,-1.491 1.86,-2.316 3.36,-2.455c1.68,-0.154 3.21,0.548 4.02,1.968c0.57,-1.596 2.13,-2.535 3.75,-2.685c2.34,-0.216 4.36,1.262 4.61,3.938l0.73,7.982l-3.51,0.324l-0.66,-7.098c-0.14,-1.553 -0.9,-2.278 -2.22,-2.156c-1.24,0.114 -2.15,1.017 -1.98,2.881l0.63,6.763l-3.51,0.324l-0.66,-7.074c-0.14,-1.553 -0.91,-2.302 -2.22,-2.18c-1.25,0.114 -2.17,1.019 -2,2.883l0.62,6.764zM1321.71,136.621c-2.37,0.218 -4.41,-1.257 -4.65,-3.909l-0.74,-8.006l3.51,-0.324l0.66,7.074c0.14,1.553 0.93,2.299 2.29,2.174c1.27,-0.117 2.15,-1.042 1.98,-2.906l-0.62,-6.739l3.46,-0.32l1.12,12.117l-3.44,0.317l-0.18,-1.864c-0.51,1.446 -1.91,2.249 -3.39,2.386zM1331.54,135.522l-1.12,-12.117l3.44,-0.317l0.18,1.888c0.53,-1.496 1.93,-2.276 3.44,-2.414c2.36,-0.219 4.42,1.23 4.67,3.883l0.74,8.03l-3.51,0.324l-0.66,-7.098c-0.14,-1.553 -0.96,-2.274 -2.32,-2.148c-1.26,0.117 -2.19,1.022 -2.02,2.886l0.62,6.763zM1345.54,134.23l-1.12,-12.116l3.47,-0.32l1.12,12.117zM1346.04,120.543c-1.15,0.106 -2.11,-0.625 -2.21,-1.749c-0.11,-1.147 0.7,-2.041 1.85,-2.147c1.15,-0.105 2.1,0.626 2.21,1.773c0.1,1.123 -0.71,2.017 -1.85,2.123zM1357.22,133.466c-2.86,0.265 -4.69,-1.23 -4.95,-4.098l-0.47,-5.114l-1.84,0.169l-0.26,-2.796l1.84,-0.169l-0.32,-3.418l3.44,-0.317l0.32,3.417l4.83,-0.445l0.25,2.796l-4.82,0.445l0.47,5.138c0.09,0.933 0.62,1.438 1.38,1.368c0.67,-0.062 1.08,-0.534 1.02,-1.179c-0.02,-0.287 -0.14,-0.565 -0.34,-0.813l2.4,-1.45c0.59,0.669 0.89,1.533 0.96,2.322c0.21,2.27 -1.37,3.91 -3.91,4.144zM1366.39,136.886c-2.6,0.241 -4.26,-1.27 -4.43,-3.181c-0.06,-0.622 0.03,-1.233 0.22,-1.78l2.97,0.617c-0.03,0.172 -0.06,0.344 -0.04,0.559c0.04,0.525 0.41,0.877 1.04,0.82c0.57,-0.053 0.87,-0.466 1.03,-1.084l0.2,-0.693l-5.89,-11.604l3.82,-0.353l3.57,7.624l2.05,-8.142l3.34,-0.308l-3.77,13.724c-0.59,2.2 -1.72,3.581 -4.11,3.801zM1392.51,122.644c-0.61,-0.201 -1.13,-0.322 -1.55,-0.363c-0.41,-0.059 -0.79,-0.072 -1.16,-0.038c-0.45,0.041 -0.9,0.22 -1.37,0.536c-0.46,0.315 -0.86,0.69 -1.23,1.125l-0.24,-2.7c0.36,-0.451 0.77,-0.803 1.25,-1.056c0.47,-0.268 1.01,-0.431 1.62,-0.486c0.46,-0.043 0.92,-0.038 1.4,0.015c0.48,0.036 1.11,0.178 1.89,0.428c0.61,0.2 1.13,0.329 1.55,0.387c0.43,0.041 0.81,0.046 1.16,0.013c0.46,-0.042 0.92,-0.221 1.38,-0.536c0.45,-0.315 0.86,-0.69 1.22,-1.125l0.25,2.701c-0.36,0.451 -0.78,0.81 -1.25,1.079c-0.48,0.253 -1.02,0.407 -1.62,0.463c-0.47,0.042 -0.94,0.038 -1.43,-0.013c-0.47,-0.053 -1.09,-0.197 -1.87,-0.43zM1415.04,128.206c-4.85,0.447 -8.41,-2.936 -8.91,-8.289c-0.49,-5.353 2.52,-9.005 7.28,-9.444c4.25,-0.392 7.68,1.991 8.57,6.44l-3.84,0.715c-0.64,-2.808 -2.25,-4.082 -4.48,-3.877c-2.34,0.216 -3.97,2.344 -3.64,5.976c0.34,3.633 2.33,5.425 4.67,5.209c2.23,-0.205 3.58,-1.752 3.7,-4.631l3.9,0.001c-0.06,4.561 -2.99,7.507 -7.25,7.9zM1430.53,126.705c-3.51,0.324 -6.42,-1.915 -6.78,-5.81c-0.35,-3.872 2.09,-6.628 5.61,-6.952c3.53,-0.326 6.42,1.939 6.77,5.81c0.36,3.896 -2.06,6.626 -5.6,6.952zM1430.26,123.718c1.55,-0.144 2.56,-1.49 2.36,-3.641c-0.2,-2.127 -1.43,-3.266 -2.99,-3.123c-1.55,0.144 -2.56,1.49 -2.36,3.617c0.2,2.151 1.43,3.29 2.99,3.147zM1438.75,125.633l-1.11,-12.116l3.44,-0.318l0.18,1.936c0.49,-1.491 1.86,-2.317 3.36,-2.455c1.67,-0.155 3.21,0.547 4.02,1.967c0.57,-1.595 2.12,-2.534 3.75,-2.684c2.34,-0.216 4.36,1.261 4.6,3.938l0.74,7.982l-3.51,0.324l-0.66,-7.098c-0.14,-1.553 -0.91,-2.278 -2.22,-2.157c-1.24,0.115 -2.15,1.018 -1.98,2.882l0.63,6.763l-3.52,0.324l-0.65,-7.074c-0.14,-1.553 -0.91,-2.302 -2.22,-2.181c-1.25,0.115 -2.18,1.02 -2,2.884l0.62,6.764zM1460.39,123.638l-1.12,-12.117l3.44,-0.317l0.18,1.936c0.49,-1.492 1.86,-2.317 3.37,-2.456c1.67,-0.154 3.2,0.548 4.01,1.968c0.58,-1.596 2.13,-2.534 3.75,-2.684c2.35,-0.216 4.36,1.261 4.61,3.938l0.73,7.982l-3.51,0.324l-0.65,-7.098c-0.15,-1.554 -0.91,-2.278 -2.23,-2.157c-1.24,0.115 -2.14,1.018 -1.97,2.882l0.62,6.763l-3.51,0.324l-0.65,-7.074c-0.15,-1.553 -0.92,-2.302 -2.23,-2.181c-1.24,0.115 -2.17,1.02 -2,2.884l0.62,6.763zM1487.36,121.464c-3.68,0.339 -6.28,-1.952 -6.64,-5.823c-0.35,-3.776 2.02,-6.622 5.37,-6.93c3.29,-0.304 5.99,1.737 6.32,5.345c0.06,0.598 0.08,1.102 0.05,1.61l-8.31,0.768c0.35,1.533 1.56,2.314 2.97,2.184c1.27,-0.117 2.07,-0.77 2.42,-1.935l2.86,0.894c-0.74,2.43 -2.58,3.66 -5.04,3.887zM1483.91,114.118l5.28,-0.488c-0.15,-1.36 -1.23,-2.345 -2.85,-2.195c-1.37,0.126 -2.38,1.135 -2.43,2.683zM1495.12,120.435l-1.12,-12.117l3.3,-0.304l0.13,1.41c0.48,-1.056 1.53,-1.684 2.7,-1.816c2.29,-0.235 3.83,1.334 4.02,3.365c0.16,1.697 -0.63,3.336 -2.13,4.125l-1.98,-2.203c0.46,-0.259 0.77,-0.722 0.72,-1.296c-0.07,-0.717 -0.66,-1.192 -1.45,-1.119c-0.93,0.086 -1.53,0.888 -1.4,2.322l0.67,7.313zM1512.12,119.18c-3.59,0.331 -6.19,-2.056 -6.54,-5.832c-0.35,-3.752 1.99,-6.619 5.38,-6.932c3.14,-0.289 5.81,1.296 6.28,4.748l-3.39,0.626c-0.25,-1.616 -1.22,-2.49 -2.61,-2.363c-1.53,0.141 -2.34,1.494 -2.15,3.597c0.2,2.103 1.25,3.308 2.8,3.165c1.43,-0.133 2.16,-1.164 2.13,-2.8l3.44,-0.004c0.16,3.48 -2.19,5.504 -5.34,5.795zM1525.33,117.962c-3.68,0.339 -6.28,-1.952 -6.64,-5.824c-0.34,-3.776 2.02,-6.621 5.37,-6.929c3.29,-0.304 5.99,1.737 6.32,5.345c0.06,0.598 0.08,1.102 0.05,1.61l-8.31,0.767c0.36,1.534 1.56,2.315 2.97,2.185c1.27,-0.117 2.08,-0.77 2.43,-1.935l2.85,0.893c-0.74,2.431 -2.58,3.661 -5.04,3.888zM1521.88,110.615l5.28,-0.487c-0.15,-1.36 -1.23,-2.345 -2.85,-2.195c-1.36,0.126 -2.38,1.135 -2.43,2.682z" fill="black"/>
</g></svg>